<mxfile host="app.diagrams.net" modified="2024-02-08T01:11:19.722Z" agent="Mozilla/5.0 (Windows NT 10.0; Win64; x64) AppleWebKit/537.36 (KHTML, like Gecko) Chrome/121.0.0.0 Safari/537.36" etag="zhkXAgA5MF6T0VlY1BB0" version="23.1.1" type="device">
  <diagram name="Page-1" id="vecaXtOdA6pGdCM3jv-D">
    <mxGraphModel dx="2249" dy="1828" grid="1" gridSize="10" guides="1" tooltips="1" connect="1" arrows="1" fold="1" page="1" pageScale="1" pageWidth="850" pageHeight="1100" math="0" shadow="0">
      <root>
        <mxCell id="0" />
        <mxCell id="1" parent="0" />
        <mxCell id="LfvLwOXkvukCmx8vtBnK-2" value="" style="shape=image;verticalLabelPosition=bottom;labelBackgroundColor=default;verticalAlign=top;aspect=fixed;imageAspect=0;image=data:image/png,iVBORw0KGgoAAAANSUhEUgAAAyQAAAItCAYAAADIcr54AAAAAXNSR0IArs4c6QAAAARnQU1BAACxjwv8YQUAAAAJcEhZcwAADsMAAA7DAcdvqGQAALI0SURBVHhe7f0JvGVVeaAP76KogaIGRQatwkQGBSoqklBAf2mwoaA1asvkP8IXJhMVGwo7LRqmODSGKRH9B4TuxpjAhfwk+QQKEhwCFBHstFBoU2ozJBEcqNIAKlAl1ADUd55V572s2uwz3HvPuWe4z1O/XXvvNbzrXWufe8777jVNW7169eZCRERERESkB2xTP4uIiIiIiEw6OiQiIiIiItIzdEhERERERKRn6JCIiIiIiEjP0CEREREREZGeoUMiIiIiIiI9Q4dERERERER6hg6JiIiIiIj0DB0SERERERHpGTokIiIiIiLSM3RIRERERESkZ+iQiIiIiIhIz9AhERERERGRnqFDIiIiIiIiPUOHREREREREeoYOiYiIiIiI9AwdEhERERER6Rk6JCIiIiIi0jN0SEREREREpGfokIiIiIiISM/QIRERERERkZ6hQyIiIiIiIj1Dh0RERERERHrGtNWrV2+uX3eEx55eX78SEZHJYNcFs+tXIiIig0fHHZL3/s2q4ls/eap+JyIi3WTR/FnF//rAgcW0adPqISIiIoNFRx2STZs2Fcf//75XrFyzth4iIiLd5DVzZxR3/8GSYsaMGfUQkeFj7Ybni//7b+vqdyLSaehp72Vve0cdkg0bNqQekv/z+HP1EBER6Sav3n7b4hvv+61i9myHbcnw8rff/2nxsa/9c/1ORDrNfzno14qP/Pvd6neTj5PaRUQGnBdffLF+JTJ8bN68uXh+0/P1OxHpBs+/8HxPf0t0SERERKRvwSF54YUX6nci0g1eeP6F9LfWK3RIREQGmF7+gIhMFvYCinQfHRIRERkXrq4lU4FtttFcEekmm2v/eol/4SIiItLX2EMi0n3sIRERERFpgD2BIt1lGv96+HemQyIiIiJ9Ta+Hk4hId+moQ+LkShGRyYXvXd8ey7DjZ1xkuOmoQ+IXhojI5OL3rkwFNr842C8837rnzsVJB+yWDq7Hw4cP2au476NvL8445A31kMkFvTlesd2Mekj3iXYbb5sB+oacZrIi3UTKGmR63QvZ0Z3a169fXxz3t991p3YRkUmCndrvPHm/Ys6cOfUQkeGCCe1//Z0fF3/8jz+qhwwOR75xUfEXx/+7lxnxP/zFr4pPf/17xcjKR+shrbnvzN8p9l30imLV6l8W+1/6tXro5PDrO2xf/OsfvztdL73ijuKuHzyerrvF62rl3X7a0lRuQJstufSrxVPPbaqHtAYn7uNve1Nb7X/Skt2KLx5/ULqe8ZEvpfNU4tT9di7+6K2vL7bddtt6yOTiHBIRERGRDvOJmiH85d8/ZNQYxpH4xr9uMeQxuDF+P/G2N6b7dsCAvvl7j6XzsPMXtbbBGcFxuObeR4of1c60Gc5Fu9D+lx71m6n9cWJofw6I9u9Vb1M/0uvedodsDRj8YfGGJLody15/O5Dny79/cHH76YeNK/9EoUy+aCazbMo68k2Lxt1mQchp1f7Ub7LrWEXoG3WfKFX16pe6TlWcuydTgUH7nG8xnrc4GxjBe376ltSrcfiVdxSvr12vWv1UisPAfuse7X033/z9x4r3/NXdtfPqesjwEm1y+BV3FO+//p7iD770rXT/7jfums6toLcj2h8n7vWfvjm1P0fe/jgt/nZtodfDIp3UPiDwB8Mfzr/88ZGp2/aLxx2UujOfuOA9o28S2uWte+xSHFn7o+bc7h93J+GNBV2/X37fwfWQ7kKXLe325fcdktrsX2pl82U1Fmh/3qbQ3sjJ2z/ewOSQljp+phbXC1J39+lb9EPfvO5jeSNXpqped9TkEnZGrZ1l8uFFkC+DZOgZsI94vMnnDf+xf3l38aNf/irdww9r1zgmMfTo3W966Xf4Xz/+7nTw2/zZo34rfYffftphKS79dtbi/uL4A9M98D0f6fmtI/2mzx6fXjjGi6L47crDc/i9QGakSb8bv39wU7sCeyTSM6+FoWlB6ElZZajTlril9ZDmvGLOlt/W0OVHv1iXzq046YDd05n2f3/NmXlq/UvDvGj/9/zlXen6FdvNLE5swx6gbdE72qeqHQPaJk/bqi37hh7/jTlkawDgCwVjEm+fa77E6L6ML7OTa39MxJeN4kZ84wePFyP3PpLeGkT38bDCF204DN/4139LdeYLiC/odtsLGTiB4cSU258vqrG0f7dJzkhNn3jDFMME8i5vu6mHC18GybAzaJPa42Ufvzu5MxI89dzGYqfzvpzmKpy5/Dv10Jrh/crt0/Hh2nc039P57wrXxL2udgRcR/r85RgvHPkd4IUlv115+BePe8mhid+Lk5dsMeD5rXi6phsvLe878+2VhjQGd9gjsO/CV6ahafGbc0vtdxadKKuc/901x4W4GDrViLBNLj3yN9Nv7KU1RwYuv+vhdG4Gv/Ghy2V3PbSVMxLglDAXhuPvvte8xwl7gbZFb35HgbrxIi53xIA2o23ytNGW+y58RbrvV4ZqHxLf0nUH/hD3XfTKdH3ZNx5OXY97/skt6cssvsj4UvlM/Q+2FXwR/sH196Su36ovymEi3nzc/L2fFIdfuSLVOb7o2u0dojcgvlQ/ctO3U7tH+5//te+ncJ5Pv/QQHFL7Ig59+bKNYQLozOcH+EGR4cHvXhl6BugjjkEcxvp4J3+/dc9d0jAlhnr9wZfuqYc25td3mJu+73Fw4ncJuwBnYadztzg+8f2P7DfXjeP/VPsd5PcCu2D/z3w1/Vbwm8GQpqef2zRq2OeQPspi+FMY3jg/wEvPeGGXj0Zg2HD8NoUujUi9GpRf0xVnAPj9bWe4GsPagxiaVQXPhgPnpBHoH3WgzuXf/qgzkA5bgF6ZPC115TMR9ehban9jvXy55ZCtPocvlPhjYGLXmTd/Zytv/7K7Hh79w6anJL4EyUOXIl2F/IHQPUr3IV9C/GEQxxFfSnzpRPr0xqTeDUxXbAzx4cskDw+9cnhbEGk4kFmVLmhUFuR6lp2HLfm2xFV9Yb6MzGAjL/Cl0QrqzNsNOP9r3ysuv/uf03Xw6X/4XuptAt7itIKy+VKK9mnUjkBautHbbcsg5opQv/KP4eV3P1yc//Xvpc9NfFaC1NOTPYuxDgXMQTZOD3Jy/fMfCukcfvfK0DNAH/EFpe/WnPz7P458CFbA7z0rQPHSsJ0Xh/TExPc9v0tB3kNwWe37P+D39WXUfyaTc3LpV5NBXbUKGDKjLIz5/MVo2BQjK7f8Lua/z/E7Tu9IqzodUprzSJnx+8vv0nh/m8ZKDP3ieeS/p7QxDhPtGHX88CF7p3PePvDpf9jivOBcTZbe46LHf2MO2epzeNsdfPrrWz7UZXBSeIvCEW8l+NDTpcjbkRved/DoHwx/PHxZEscRX0p5+hjuQ5cj9wzxSQ5OKZxuzPzLBgM0um0XzK7JrX24kUm6qiFCyeGoKOv2+nhZvhSLzdOSjHe/aetuUdol6tDMsbir3huCUxHOEnWtMtaryNsfY74KngtvsvhSLhv5OcmJqtUXw5/60kbRjlHnACdy5Zm/k7rRI220JfNXmvHDXzybzpRXbnfqjb4c8VmB6JKOZ4deMRRwPF+gfA7otkYOn4PQn6Fv+WdGOsM22/hVLkPOAPWQ0LPQCH4j+E7Pj3wIVtDO71NOIwO/mS7wd997bNSwZggS8wx5MclvfqPv/nKvw/1rXhp+9Zb6aA6GbQFGePwuxss9Xog1g99IfpPIh6MF2Bfx20Ecuua/zznJdqgTNs54iWdDveIlaBxRr2ineOHG73ae7su//+9TOKTfxD6FfUiGZsiWdJ4YqsUfWLM3Co3eomCUkjcN3fnM14rvthi3Sfr7Y0WQWvroiuULgJ4Yun6RFcZsbvDG2/uUrj6sKd6c8OagbKxTN4ZPIZMjukD5AgtZrCoC8UUWxCRAhmI1axe6jqMHKZwl3s6wckc7RPvzpZgb8Dm8IeItEkejNBDGPeWnOtfaiO5u8uR1BpxI2mvk3kdH077nL+9OadMKX02MesbYxnNjAiE/MPR2sNJW1Q8M5XIgm2cbelE2n4d8vHE70EMT+qUhB1m3NbQzgVDGhj0kMuwwvn1Q4Dc3fgviNyRg+BVDnTiiF6GX8Pu15DNfTT396Mx3Pr+3/Obzm9XOvIcqp4ff3vgd4jsfYz1+f2LYdBU4EDHagFEJDLV+6Tf84K1+X3LHI+dH9Zdy0KxXnjjkNXK8YEHdoUmOzebaZzA7qAdH1DNolpb5Of0Kf2NDM2TLt3SdJ4z4+HIL+MDnHngc0V2awwofvG1ZteaXlZO7yuBEYOST/pr6FyZ/+DFcDFm3fP8nKTx/+xB/uPnvBm9CMKhfXzNKy3VAJsOHkMlBF2i8eWHiG1xb7y6mnPgS4joclFtajCel/V4x5yUd0SFWPCGOL6Kyo5ST128i5F/GlB/PgR+DeFsUDkn+BRntAzhn8QN2Ys0paQTtisMVQ8n4gaG3g5W2eKtUHsca3cznf/27o2/lUjd87XnDWLuZG/1IsHY+P8Is4SidRYdEhp1e7yI9VuK7mu/1Rt+f9BrDqjWN5zlMBnzfM680XkbxIimck1g6N4fwnNzoz0csXFP//eb3+pB6XRtN8g9+fYc5o+0VLyT5LeIFGb/H/I4B5Xy3QbvxGxROz0lLdq/8jacO9NjHKI1GhAPx53c9lObXVB04XxA2Tjtp+5Fe/4501INgN1XpLGUjPsiHXeVH2YDmj7bZH38VVekb6ZGTz6WIZfHSahOvqv4yrhpH+o0fbOme3XfRDumcf7FEr0j+dqRqfGsOXzbx9p+3GHwxxYRu3lxhoDdbfjiWGJyoYxLdtOj8xf/vgVs5keGIMCkRohu6Km2MweVZNyN+YPhxwQHi2cRbnDRXJBsiFj8mzbqZGVbQLjiVURZv2WIIAM9vLI6NtIfOiEwFtpk2WC88MaCB347y0Fd+h/hujLDoAegF/B7w/RzzN/nt4Hc1fourfvvIkxv5GP3Bd7PhW+GU8Vt7cn0uRqvf7Lx348hsOWSckvgNh1abQ0Y8jge/8Xn7ow/PBLCRwsaoIpyq8iiPJLfWbsz/id/HqG+sWBaQlt/UPG0/Mm2bIVplSzpPvG3gA53/MfCHGfNGGFrVD/CFwbCr+NLAaE4Tm8/8nbZXl8AILxN/5GGMvzRca8vbk0Zg6Ed3eVo9pD7UjCFPfPm+OXMSGhGOGF9mefvnpLrSjVw7GqUJ+HJ/3SvnbnXw50+blddXH0vaRvDjcsv3H0vOCUOn4oePXo9yb1pVeVvKermD2orooaH9+OzGEAAcwHDApDO4wpZMBQbN8WaEQT7Zm+++mMTOC7v4HmRY0lhfGnYavp+Zv5mWCK79PvJ7HaMQopcih5dnzHHEwGZeZl6X/OUlvx0Y+/y2xNAvfo+awe9xOAhb5qVuMfo5505Fq5dy9ETkw8Dz9s+XM/7o8m83bf8YAs0zpM68ZKV9cGhoI/SI/JfXfl+pP3YHL+IiLflIl6ftR4aqh0Q6T/7HW15Wlg82R95dOh7jsZMw7CrNGTh3y1yTcBp4o1LuFo0egZxwIHKDm2FZYdgiI+S0etOCgwAxzwTjPDZD4ss3ekqaDfuKiXl8oTaa+8CyzHw5/cVxB231ZdwI2qfqYKwsxDPki7kqHUekrYIvbt7GVBn++Sorr6u3f+jM8LCqsjjGOsEyHwKAw8wQgKhXu86piEgwaEO2gOG4+XdfTGIHvndZxjZWYOoV6BiGO0N7WTSF32v04wXW5XdtvbIknFkz4nkNQk9A/B6TtqouuUPDSlXt/EayPH+MuMDoj3LIG8PJ4sViM7BHGrU/Q8eSjdJi2De/w7xgQwY2CHYD7YNDg4x8Piq/e1VpeVFZTtuP8HKrl06JDkmfwwc7f1tQXjUJozsM61ZjM7sJBjuGZuqSrP0hxlyTfPnB0TkmdcLBCLiPtzL5mFq+EGLOysff/qYkn56jVkZyfPHxdiR6LtJbk/pqZYQhp5ljQ/q8/ctGPl82ERbOSxXhVEH5GSKDdgs5McaUNs3bB9CBdq5yNoJX1Fe0wunK3yhB3pX8w7rTFxtUlWXyPHBu0rC7MXQzozP1oUcEeFNIG+PwAPVq1ZMkY8NeEhl2BmlSew7ffbzU4cUMw2cxkLnmZU15GXmIkQ9Vvydn3rRlRc18XxKMasJ4O59TJQd7IsLzBW74nWZ4L7LQDz3Z7yzmEUKeF5nUKdITlqfNuas+9AtazfkM+M3PhxznbUZ7pr3YanHX1IfFNSPaH11zWbzUK9sQqV71OubgaDSSUba5+L3L2ybapypt39Fjn3/a6tWrO6bChg0bivf+zari/zz+XD1EOgHLzsVytbBlXsi6msE4d9RQJCx55vUPPEYkxivhTCjPQQ7dl8AfDX+UGKNhQDLxOGgk54vJgN59i9df+0PDyKSLMox83ro8vX5j8eGD90q9Hrl+kRcDnfSM0WTiWEw+I5whVvkfL0YubRDwpqXV5Og8D+Uz9As980lufPGxCRRfto1o1P77LtxhVA5hrFQSE9BJT/ksCvD++o/Hll6ZLW90qDNf1DgO4QjwxRXOUdqd9q28pdqY3uA0S1smrzdtyVhg5LBsYcxlodfoPX/1zXRNGPuFAM5JjJn9L/W3QNQtnn1VvfgskQ6Hg+WE8/Kjniz7G/LiMyOd4dXbb1vcefJ+xZw5c+ohIsMF81Ov+/aPio9/48f1EOl34rfxL47/dwVL7ue/I9KffOg3dyk+dsiexbbbblsPmVzsIRkAohswXzUJ4zTvesydkV6AwZt0qH3poN9nj/rN1PUbzghL1pb1W7X6F6mrmG7i6NbEgD7zppeP6aTXIHoYIFamagZ5MNxDJxyrvPuU9sRBKU84LBPtHz0l0f7xhcuwtNwZaQST7GIOR3SNh4PB2NvcweBtE2nRL09LG9DN38gZgbze6Bhd3uGMUPdwJoA3Oun51NLzvHh2HKPOQ63uY4Hyy0MAcnnt7DosIpIziEO2pjLMR2GuDM4IXPaNh9JZ+pfNL/b2b6yjPSTr168vjvvb79pD0kV4W//mmtEYxjArGmFQliHdr9UMQNYHL8dj5MaEZrptMaQjPeTdmI3kMEGNIVhV8lklCqMdcEaijKCcN09Pl2kjw57hQxjXY33T8orZM4pD6kvX0hODYxEOT6xo9eOaTByPVpTbv5G+UccquSEj9GlW57GkrYL6xbycct2rYOGAKIt2LndpV9WrURuWda+SJxOHHpJ/POU3i+22264eIjJc0ENy7bd/WHziG1uG7kr/w4s+fnv47v/zmjNSNTxN+ote95DokMhAgMPCkDBoNlxJZKqBQ+KQLRlmkkNyX80huUuHRKRbfGi/mkPy1iEZsuXESuk0OCKbPnv8qDPCW/YYOiUiW/C7V4YeP+Ii3aXHf2M6JNLXxLwH6Ie5MiL9Bss0ujmiDDvaFyJdpvYz0su/s446JO7ULp2GNcxZ9YtjIJbNE5lkNNRERGTC1H5KhmYfEn8YRUREpOPYCdgTWMCFhUk4RLpJRx0Shw2IiIhIJ3FY4uTDpsvsJ8XSvew1xcFcTjbmjVUmxwoymRPKEQ4Oy9lHmPSYYRqytc02HRUnIiItwFCzd1qGGT7ffsYnD/YOYdleNrmF2DiYRWbYy4u48Tol0t8MzZAt55CIiEwuGGq+PZZhJvWQOGZr0rj0qN9KZ1a13PPTtxR7/sktaR7nmcu/k8LZX+TE+qa+Mjykv7JhcUhEREREOom9I5MHGyfHcKpPf/17Wy0kc9ldDxcj9z5SX3p/62dCj8kn3vamtIHx7acfloZ2TWTeSVkeZ4Z3SffodU+kDomIyICjwSbDTs1Uql/JZHHInrvUr17iD66/pzj8yjuKy2vOScBQrvvO/J3i4297Y3HkG3ct3rrHLmloF/NOPlELGytV8jh/8fiDxiVP2qTHnZAddUj8URQREZFO45CtyeGp5zYWN3/vsXR98pLdRieyMyG90bwR5pTQG7Jq9S+LpVfcUez/ma8V53/t+ynu42970+hclHYhD/IYMvZbn/nqVsPFxiNPBgN7SEREBpg0vt45JDLkbDNNc2WyeP/19xSXfWNLD0g+kZ0Vt/7i+IO2GoqFoxL3x/7l3cVdP3i8WLXml8Wn/+F7o47Nu9+0azq3S8hDznfXPJWuGS6Gs8Oclm/UypDO0+vfEf/CRUQGGHumZSrgojmTB70kZ978neL1NeP/D770reRYPPXcphRHr0n0iMAh9d4KejNOOmC3NMwqDuajwL4LX5HO7bJljgqrfe062kNz5JsWpfksbo7cPaZt09vfko46JL6lExERkU6j4z35/LBm/I+sfLR4z1/dXex03peTc4JjQq8JDkcOYUxCzw96T8YDk+npoYmy6KH58vsOSXNScE6kSziHRERERKQxziGZHPZd+MrRHo4yOCe3fP8n6ZqJ5hA9J/SQMNej6jj8yhUpzVighwYniGFaH1n+ndFeE5wTV9vqDg7ZEhEREWkAhpIvPCeHWG439XCUJo8TF47Ij36xLp2/u/qX6UxPRj63BHAcGMa176KxDdkizxk1x4OhXsxJYUUvVvaKDRrZB0U6T6//xnRIREREpG/BUHJI+OSwas1To4b/7acvTZPY6S1hqBRL8YbTQW8JMME8ei+YW4ITwlAtHBqW6f3icQelXpexcNL+uxefrZX35d8/ZHTSPPJGJ7vXnSDpLPaQiIiIiDTBfUgmBya0H37FS70RTGLHGWCoVDgE53/te6MOCbz/S99K6eklwQnBMYkhXyP3PrpV2nZgid+QhyzmjoQ85paMVZ60R68ntU9bvXp1x1yi9evXF8f97XeL//P4c/UQERHpJrvMmV784ym/WcyZM6ceIjJcsMLWX3/nx8Uf/+OP6iEyGbw7bUq4U7GgvloWvSfX3vtI8dT6LfNGytA7wjAr0j/NfibfX52GXAWsuvXuNy5K17d8f8vKXa975fbFIfXJ77mjEeHN5Eln+dBv7lL80VtfX0yfPr0eMrl01CHZsGFD8d6/WaVDIiIySbx6+22LO0/eT4dEhhYckmu//cPiE9/YMqFaRDrPqfvtnBySbbfdth4yuThkS0RkgGHc7zbb+FUuw40bI4p0l17P1fIvXERkgOFHxE3jZNhxUrtI9+nlSls6JCIiItLfOKddpKsM1SpbvsEQERGRTqN9IdJd6B2xh0RERESkAS77KzLcdNQh6aVnJSIiIsPJ5to/EekuQzOp3S5VERER6TS+8BTpPr38O+v4PiTsovl/H3/mJeeEE/WLc5CXmoXTGJtfrEWW05ZllPNXpQkibRY+Wk662XLaijxP1TVU5QtIl8fHfTk8p1xOpKvKUw5rlL58HRAWcRFeu07twrPLwraiUXhOyA3K90EeXiW3WRhUlZHLDPI8UI4PyjKayQzaieMM5XSN8rbKF+TxcQ1xn5+ryPKPPvcyzfJDnqWqvLivCg+ycP/+a5TTVeXJwnbYfnZxwdt/w31IZGhhFbnrvv2j4uPf+HE9REQ6DRsjfuyQPXu2D0lHHZJNmzYVP/vZz4pf/vKX6QukoZFTg7hIkxN5OLiuksGa+/kyl41kBSGrEREX6crlQZWMctq4byQjp5w2rnMIi7oSF/GtZJcJOeV8Ia9Z20GVbuMFOaEH15Sd17FRWXl4XOfp83OeFsrpIb+Gcp6gnDfSRN48LNIEeZ48PM9TRTm+fF+WB1VhOeX4uI7wXH6ZVrIhz1+WXQVxVZ+7yBM6Vcnw73/rMufPn1+85jWvKWbPnl0PFRku+BtwY0SR7nLqW3Yu/ug/9G5jxI46JC+88ELx7LPPJscEyj+cre4Dwqt+fHMiTVlOmTy+0XWZiMsNn2ZhzWSNh3Z0yymHtcoPER9p8zNH1DGIfEEj+UGevlxWmUjbrPwqyvLKhmozqvJyH2Hl+PJ9mVbpG+XPw+O6KqyqbmWZ5fucqrTQKD3keZrJziENaavKa3UfhIy4riLSlOWUyeMbXZeJuEH4++d+5syZyRnp1Y+ISLfhb+5bP/hpsXzVj5OdUdnLyJ9FVTjkcfHnk6fN/9zK4Xk+rqvyQx6e54OIC3KZkN+3uoa4bycNcA15fEb6Xsl7psuyGhHpymWV8xIG5bTjod2yoCquWV7I8wd5ushXzp/ni/igKl0eVqYsOyfPX05Xla9cXgPZ07eZXvyH17+6+I+/8drhcEiAH8tO/jiLiEhjMCY4RIYVHBJGXjzxxBPphWfZKec+P0Okifs45y92ynmD8gugcjz3EZbnL6cL4oUX8RBpWuWrygPN8jV6aRLXVfnye66DSFu+DrinrHKaKtl53qp0ZXKZQS6rnDdvY875dcRBnKviyvIjHMpxcW6H/JlAI30aUVVufo40QVVYTq5PpJ0xY0axww47FDvuuGOK7wUdd0hEREREOgWG1caNG9M81dzIyg2yIMI4h+EXeSK8bLCVZUS68nWcw2DLw0kXaSM8l0tYrk8eB5GXc27kB3meqvzN4rmuii87E6FfOa4RkZYzlNPncXkarnOjl3sO4vI8ZSJN+Toox0M5DTQqo5wnT5fLjnNZBuG0W/nzAVxH+wYhnyMvK67zcuIauM8/S9AoD0f5WUZaiDPyZs2alXrc87STiQ6JiIiI9DVhOIlI9+iVMwI6JCIiIiIi0jN6M1BMRERERESkhg6JiIiIiIj0DB0SERERERHpGTokIiIiIiLSM3o2qZ3l+0REphLTp093A0MREZESPXFIWBOZHd1FRKYS7qguIiLychyyJSIiIiIiPUOHREREREREeoYOiYiIiIiI9AwdEhERERER6Rk6JCIiIiIi0jN0SEREREREpGfokIiIiIiISM/QIZFJ47HHHqtfDR5r165NRz8xyO0pIiIiEuiQSOLss88uTj/99Ppd51m9enWxdOnSrpbRjAsvvLA48cQTkx7j4ayzzir233//4qGHHqqHtM8zzzyTyr788svrIRPnggsuSO15++2310NEREREBhMdEknce++9xYMPPli/6zzz5s1LBvSBBx5YD5lcqBt1HC/ojf7UY6zQs0LZ43WGqgh99tlnn3qIiIiIyGCiQyJtg2GNYX/PPfc0NK4jHkjDNfnmz59fnHzyycUBBxzwsjiOZjIbEWU1cqRyXcoQTm9HXqcg7okLDj/88KQ/9YDID83KaUbUu1HecrvkZeKI5Pqgw0T1EREREekF02rGzub69aTx4osvFs8++2z9TvqBww47LJ1XrFiRzmUwchl2lBvpy5YtK84444x0jdHMcCzSAQbzwoULizvuuGNUJmUcffTRxcUXX5yGL33+859PRvU111yT4uHcc89NYc2gLIaY5T0eOAzIpQejrMuiRYtSOAY7unC/1157JV3yngvqw/CqkZGRdE+6a6+9Np0p76abbnpZfmTm5dx8880v60VBfl53iPoHeVlw4403pmFm0d4nnXRS0qvcfuTByUN+5I12KcuU3jN79uxi2223rd+JSKfYtGlTsi1EZGumTZtWzJw5s37Xv9hDIi0JA5+38Ri4y5cvL/bee+9kEIfxi4GMYY4zQTwOAs5IK5gDccUVV4w6E7mR3ggcA8pFFxwEjHXkYMRDWZdjjjlmtPcghzzEISfKXrduXbrH8KfezeZoEIczQHqGT5E+dGgGaSiLstGfusc8E0DOOeecM9reHLnz1QjS4Ajm+uTOnojIsPLCCy8kp8TDw2Pr4/nnn6//lfQ3OiTSkgceeCAZtxj4GOAYveedd16KCwMc45w38fRwEE9vA05LK5CD84IDgGwMc8oCeiXyI5wDZD/88MMp/ebNm0eHLZEXSEdYK10iDjnoAFFH9IHo/aiC/JRB+ugpapY+wKECyqbNKIvyqTeOE+0NoQtHtHczos55+mhLERERkX5Fh0RaEr0L+VCkMPDD4GVoUXloUDtDhXKZ4VgEvPHPjygLo5/eBIZN0RNQ7gVAl7IDgvPQDuXhVu1S1r0Z1IO2ydsnrnFGqtp7rG0ZhJMmIiIi0q/okEhLwhjO54+EcxCGOMZw+W18nn48MJwpP+gxAIaPURZDk+6777405CunSpfyfS8J/arac9dddx1t71xn9xwRERGRYUWHRLYCwzc/MJpjOBM9EWEkM08DIo4eCOJi/gb7ZNCr0Q0oB0eIoUkY9+V5HrkuwIpT3dJlPESbhX7oin44ItQp4pnEju4cF110UQoTERERGTZ0SGQUDGOGQOXHbbfdNjo3gXhWc2KDQCasMyk75lowMRuDmsnaRx11VLFy5cpkXHcDysTpQReOsrOR68KwLiaId0uX8UBPD0PKcPBoS+rA0KqY9xHtTRgT9jnaHXImIiJTi3bmLvYrvPTEtugX0GeQ23OQcdlfSdDLUDXECkM+H0JEOgxlNuarMvLjDxkDmnkeOAsMq2LyOU5M9AKQjrkSuXzSUgY9BFXzIXLQAxmLFy8ulixZkmRj5IfhjhzkoSuOE2lz2Uwsx/DH6YJy2eTL9S3Hl/OX0+c0ios6IAcdy3WOL0bqhAwcF5wxHK5y+yGLpf3K+uQ6Su9x2V+R7rB+/fq+XE2I30G+h8tDizsFLw1ZIIXfpm6V0QyWp+f3iCHU4+HII49Mv2UsmV+1+EwzKJfy+V3kN7QThN0yHn36lW222aaYM2dO/a5/0SGRjnD11VenJXbji5FhRvRMAPM/pH1wfFhVDHA++DG77LLL0hAu7qNXSgYPHRKR7tCvDgm99Lw06tbvIC+fmFd5yimn9OTlUxjwrHw5HhgpgL1w5ZVX1kPah3yMIMDuiJUuJwov91g9lBELPLdhYFAcEodsSUc44ogjRr8Y+QLmS4L7XryxGXT4EqQHii/5GCKHM0JvCM6eiIgMD/SGx3xBXkiVid5y4iG/pmc8lpAH8hOX56mS2Yxm+cq6lCGcHo+oE2mDqnz8rsWCNVDOX07fDsx/bZY3ZFO//BoYkYA+vAgE4tAHmtVbJo49JNJRYmgTXZ2sGNVq6JU0hnaMI4ZmyWBjD4lIdxjUHhLexjPsCMM4yN/48/1PLwRniGG/0SuBgcwLwBjOS+86Q4q5jz2voJ3e9XJZgHHOnEZopQvhvEQjnOtIR356HkgHtAdDorAP8h6WRvlxEhgSVrYnou55e0X9A8oib/x+sphMvgFztFPIiPw8L/Lw/EgTtg3k+g8C9pDIlIQvEv54+QLRGZkYfOlFe8aXqYiIDAcYuAxt5m08RjPDnnmZh8EcxjsGMulwDIiP3vNW8FafEQrhTMSqjs0gDSMbYkl9jH2GVI1VF8IoN5wIHK5wKsLZiE2VqyA/c0JIT3vQM8FcmVagP84E+uFQoANloTdwTdvye4psjnbaEmcq9GFYXCv9ZXzokIiIiIhMMmFk82YeQx2jnTf1gBGMc4DBTBzGdcS387KP9AzxxTjHqMeIBmRioOdHDEOiFwVHhHKefvrp0V4bhkCFLsS10oVyOaJOEHXEyQHkNYK8yCZ9tEfo3wzaDOcO/XA6qDsy0Dt3IkIXjpjr2oyoK+mjJyYfiiadQYdEREREZJIJIzvvAWflSMBgD4eg3EMeRn4z8jwxHwKQiYGeH+vWrUtxGPSsesW8RXoCiAvGokuVkxJhuS6NyPO3kz6gV6hcduhLW4cT1Kht2mGs6aV9dEhEREREJpkwjOmBCOIawzeM65hUHUzk7TxlMpwpP2J1LhalwfFgaBI9JdE7AaFLuaeinZ6LyQIdw3EKwgmhPavau1lPjUwuA+OQxIeMc/kDJyIiItKvMCwqP7BjojdkZGQkGfaEMWcDGLaEEc0wIRwQ5kdwvuCCC7piA4VjQY8HZWLc02MS5LqEjiz3308OCfMtcTBivgztHHuAMWwt2pt5JPEcLrroohQmvWdgHJLTTjstnRlzycEfZNVbBcLzo5yGMIi4SJeHiYiIiHQCjHbmTuQHhn3MSeA6lnjHgI45DsC8DgxqjOijjjqqWLNmzWhcJ6EM5OKEoAcHZeUwNwNHhUnqrD6FI4Wh3y/QbtFWsf0A+tLjA9He8TzoEXLj4P5hYJb9ZWk4PlQxKYmVFFjhAW/+gQceSGtx4+3SxcgkpVj+jg8bf1RMbmI8JGn5QPIHxQcVr58vg0suuSS9eUAm4aQXEekkLvsr0h36ddnffAnaHIzjGEKEgRy9EdFDUQY7JYYd5Uvl0iMQvQDkIxx59LBgy0CE0YPQCvSgLGwhZJK3ka6sPEXakF3WBcplRxocGeqax1flL6fPaRQXdWDrgbwdAl4+Ex/2I84JtiO2Ybn9eH60ezguVTr2O+7U3oTxOCS8GWCZuXBIojeDDxyOCB8swpYsWZLGW/LBCieGczgkpGUHTuTEh4kPH3LohuRDFxsNiYh0Eh0Ske7Qrw7JROHlKQY2Q4twErBhMKCxebCJpH2w9XhRjTOBjYijcdlll6Wennb2aRlU3Iekw+Bo0L0WPSP8UeI48AHjnjMOCh+wKohvBh/QhQsXJqem7E2LiIiITDZhJOOExDAk7BX2GJGxQbthL2JHxhA5nBFeWA+rMzJIDNRO7WVnIb/vlCOhQyIi3cIeEpHuMKw9JAEjPAD7pDx0ScYGL6jjJTVtOew2n0O2mjBeh0REZJDRIRHpDsPukIiMF4dsiYiIiIiItGAgekjYoOenP/1p/U5EpLc89dRTabGMsWIPiUh3sIdEpBqHbDVhLA7J5s2bi69+9avFH/7hH9ZDRER6CxuCMTly+vTp9ZD20CER6Q46JCLVOGSrQ7zwwgt+yYhI37Fhw4b6lYiIiEyEvndI6CGhR0VEpJ/gZYmIiIhMnIFwSNhvREREREREho++d0hwRnBKRET6CV+UiIiIdAZ7SEREREREpGcMRA+JiIiIiIgMJ33vkIiI9CP03jqcVEREZOIMhEPij76I9Bv03tqDKzK8XH755en8zDPPFDfeeGO6FpHuMBBzSERE+hG/n0SGl3vvvTed165dm64ffPDB4sILL0zOCWE4LOG0EH7NNdekezZO5RoiTaQ/++yzU37ODz300FYyRaYyAzGHxLeQItJv6IyITC1uv/32dF6wYEFxww03JCdj9erVyZnAYTn55JPT+Ygjjkhh9KwsWrQopbntttuKO+64ozj33HPTeenSpSkMx2TvvfcedWBEpipOahcRGSd+P4kML/PmzSvuueeedMyfP7848MADiwMOOGC0V2SfffZJzgfhpA1wQkhPPpwRroE0XMcZSLvrrrsWRx99dLoXmar0vUPiLu0iIiIy2Zx33nmpN2PNmjXFGWeckZyH6Ak55phjiqeffjoNuSKcewjHgjOOCr0oOC6LFy8ejcOJwQkhnjLoeaHXRWQqM63mvU/6uAOcjGeffbZ+15yNGzcWf//3f18899xzaYhEDJOIN5Pccx3nKqri8rB2rstEHGco5ynLgbKsPDxP34yy/PwMjeI4Q34dVIXlEA9Vaapkl+VFfoj4qutGlOVV0U6aMu3mKacLnaEqf8RX5SEsl9foukzENUpTDuc+iHxxDVVyxiK7fA+t0lTJhohrdY60kN+X05SpiivLbHVdBgPltNNOK+bOnVsPaY/Zs2cX2267bf1ORDrF+vXri+eff75+JyLBNttsU8yZM6d+17/0vUOyadOm4sknnyyeeuqp9GWDkdCIRsZDTuQnbdU1NJPTKD9w3ywvlNPEfVluLjPI4/I0UL7PCRnl+KrwclguN49rFJ4T4UE5PYSsuA5y+TkRXs6Th1flC/J8ja4h7qEcFunzc5lyeKQty4hriDx53qowKOeFPE3kqaIqL0T+XE4uIw/L00Wact6gHM+XY/R85mnzvM2uG5HLakTkJ23VNTSTE7psv/32xS677JLOY0GHRKQ76JCIVKND0oSxOCSk5Ytmw4YNWxkNYRi0olW6sjES5PkiTaRrVW6eN79uRqSLMqAqX7vyOkWj8saqR16/scgr52uUbjKhfD6XZT2qdGxX36o8VfIaQZqgWdpmsnIZ0KrMMu3q2W5dIl1VnnbkQKt0xEV5OXm+SBPpuJ8xY0ax3Xbbjdm50CER6Q46JCLV6JA0YSwOSRgGYRCEkZAbB2UIyw3Gcj6u8/x5PERcTp4fyjLKVMXl5bRTBpTLCRmNZEVYTp4HqtJAHp/Lh7jnoG1zIl3kCzn8EeT3OVWyy+nysPI1NMoXRDqItDl5/vI5pyoNRLo8T9V1nj6PhzxNVb5mYdAsDWcohzU7V0FcTqSPayinyamS347MnMhfTlOWA4RNxt9/nqdddEhEuoMOiUg1OiRNGItDIiIyLOiQiHSHiTokX/ziF4s999yzficyPlatWlUce+yxaaGDfkGHpAk6JCIyFdEhEekOE3FImKv6zW9+szj11FPrISLjg00xcUZ+/dd/vR7SewbFIen7ZX9FREREugHDMHFIqoZqiowHPk8ydnRIREREZMpSnhcpMhH4POngjh0dEhEREZmSjGdxCpFW+LkaOzokIiIiMiXxTbZ0Az9XY0eHRERERKYsvs0W6T06JCIiIjIl0RkR6Q8GxiFZvXp1ceONNxa33357PaQ73HbbbfUrEREREZGxoaM7dgbGIbnnnnuKhx56KDkml19++aiDwnnt2rWj1xCOC/ccDz74YEoTzgbncGzuvffe0bScR0ZGUriIiIgMP473l07jZ2rsDNSQrXnz5hWPPfZY8jxxUHbdddfiwgsvTBvR4HAQhrOBk8E9jsg111yTHBicFJwNzg8//HBKS7qzzz67mD9/fjoDeURERGT4wXD0bbZ0Gj9TY2egHBJ6MRYvXlwsW7asuOmmm5Lz8MwzzxSHH354OuNwEH/ggQcmx4MzeXA46P1g90zykJ5rnBbOBxxwQLomfJ999qmXJiIiIsOMhqN0A3tIxs7AOCQ4Fcccc0xx9NFHp3ucCJwNHAiGcuFQEIZjQi8JvSkcxJMP54TzKaecUlx22WWpd2TvvfcedUCQS28LeURERGT4wXDUeJROo6M7dqbVjPpJ/0tkF8tnn322ficiMjWYPXt2se2229bvRKRTrF+/vnj++efrd2PjV7/6VRrG/aEPfageIjI+mEKw4447Fm94wxvqIb1nm222KebMmVO/618GasiWiIiISKewd0S6gZ+rsWMPiYjIJGEPiUh3mGgPyde//vXiuOOOq4eIjI/ly5cXe+65Z/H617++b4ZtDUoPiQ6JiMgkoUMi0h064ZBgl+RvtjEoy2+6I6wqrhHltK3uW9EsPXEwFnnjpR29iQ+dgHsM5MjXSkYe3055jSBfrkcVY5VflZ7v+Le97W1pPnKr8iYLHZImjNUhWbFiRbFx48b6nYhIb3nqqaeK9773vWP+wdEhEekOE3FINmzYUPziF78onnvuua0MV2yVdv/Gy8Zp3JfPQfm+TDltTqO8EVZOXwVp20nXDsjKnYwqorxy2ghvRDm+VXqINOW0cU34eCA/n4lGdSV+1qxZxQ477FBst9129dDeo0PShLE4JKT92te+VvzhH/5hPUREpLcwcZGV+6ZPn14PaQ8dEpHuMBGHBDtj06ZNWxmZYdBC2bCdDPLyc6rCG6WF8eqey+S6mXPWrPycdnRpVxaEvJDZLF8jue3kbUSVTMJmzJiRnIB+QYekCWNxSPiC+epXv1qceeaZ9RARkd6CQ/KWt7xlzF/yOiQi3WEiDonIMDMoDknfr7KF8/LCCy/U70RE+gO/l0RERDpD3zsk0Z0mItJP+N0kIiLSGdyHRERkHIxnzLGIiIi8nIFwSHwTKSL9ht9LIiIinWEgHBLfRIpIv+H3koiISGfoe4fEH30RERERkeHFSe0iIiIiItIz7CERERkHvCzx+0lERGTi2EMiIjJO/H4SERGZOPaQiIiMA7+bRIafe+65Jx2rV6+uh3SetWvXpkNkKtP3DomISL+iUyIyvOCEfP7zny8eeuih4sILL0xhDz744KhzwjXOSvma9DgYpMvPEc896QnjfMMNN6SzyFRmWu0PY9J/UV988cXi2Wefrd81Z9OmTcXf/d3fFc8991zKBzFMIoyB8rCJ3EioiiMszq1oVAY0k9EsX5lImzMRuaFXrl9eRsTl5GHNZEMuF+I+P0Okye/zvPk1lPNBOQ1EWFX6RuR52kkflMtoVWbEw1jKq5LbKCzu4zrSBRFWla8cnhNy8nSt0jeKC/I0jeSXw4I8TTktlO+DCIequFxmKxqVsWbNmuI//+f/XMybN68e0h6zZ88utt122/qdiHSK9evXF88//3z9rjPgOOCILFu2LJ3POOOM4plnnklOyjnnnFNcc801xYEHHlgccMAB6f7kk08u9tlnn+Lyyy8vlixZUqxcubJYuHBhcdBBByWng7SA8zF//vz0/RFOCbKRI9Jpttlmm2LOnDn1u/5lIBySX/ziF8Uvf/nL9GUTxkQYFHHfLpE+DIxGectyq8rJ5bSSV0XIbFVWyA6aldFMVjlurIQeyGhWTpk8H1Tdj1cWRPqqfM3iWpHnyeVAo3LK141oJa9MI5mE8/cUcqrI81bJaSQbQm6z/GVayWuWvyo+1yHi47qVvDKRPpdZRVlufs81X+677LLLmL/kdUhEukO3HJLTTz+9WLp0aXHMMccUt912W3oZcfvttxfLly9PjgnOxHnnnZfOxJ9yyinFjTfemPLjcCADR4Vek8MPPzw5K3DxxRcXZ599dnJEyLd48WIdEukKOiRNGItDQtqNGzcWGzZsSAZBbkxA2WjIDYfcgICq+0hfPkOky4n4SBuUZeTkcdAoXdBIVi6jUZpW5PlychnE8QFu1CMFVWU20qVReE6kKadtlZd4iDRxD2U5EGGc87RVlMtuJRtCbh7fiEbpQl4zGe2kgbJuzcj1ies8bLyEDvGZakde5GmlT6QDwiMNVMmA/D7Sl88Q6XIiHqdiu+22K6ZPn16PaQ8dEpHu0C2HhF6Qc889N91zjeNBOGH0mixatCg5HOFoHHvssek74t57700OBmd6WHA+Ip6hW+QnDueFXhccGR0S6QY6JE0Yi0MShLEQ5EZDXOc0Cm9F5KvKXw5rVkYexzVUpW0mAyK+fC6Th3MNjeQ2khGU80f6CIdy/kYym+Vpl1x2o3LKNEs3Hnmdoqq8CCuf87gyVXlyynFVMnLKaZrlbUdeFY3y5eHlNOW4oFH6oFF4KyJfVf5yGPdjRYdEpDt0wyERGQZ0SJowHodERGTQ0SER6Q46JCLVDIpD4ipbIiIiIiLSM/rWIVn+8JPFGV//Qf1ucrn4f/2kfrU1I997vH61BXS84r416VwGGcsf/nmxdsML9ZCiuHfN2uKOHz5VvyuK1Ws31GT+W/2uOeRFZi5PRERERGTQ6dshW+fe+cNi/szpxen7L0xGO6O1UXTN2o3F0te9ojhst1ckAz3iIeIw3k98887Ftd99vDj7t19brKzdEzZ/1vSaE7AxGfV777hdceKbdike+vmzxfKHfl5riaI44DVzaw7D08lRII58D/38uWJeLd9Re72qeOjJZ4u1G2sOQU0Rwk6qpbnpn5+s6bltiscxWblmXZJN2sNe98pUJo4MZZ74pp1Teehw4aGvS+Wcd+ePku6Xv22P4qJ/+kmqM7Ku+PZPa3VZkOQ9UyvznP/Pa9N571dtl9KLyODhkC2R7uCQLZFqnEPShFYOCYb6+275l2LJwrnJuH/wyeeSAX/KLf+cwhbNm5WM9jsefSo5DUsWzUu9ERj159UcGTyG02qOypX3/bS4oJYPRwFH4qGaHCqLLNIRt+LRXxYP1pwO5CysycXwv/ifflwrZ36tnJkp75F77ZjicXjK+a+tORs4GnDG135QXP72PWrOx/M1GT9JMnAicDJwLijnj2sOyFm/vWtynKgnelMf0lHGorkza/nmJceFcMLm1R0znCARGVx0SES6w0QdEpbeZU8QkYlyxBFHjHmPqm6iQ9KEVg4JRjhgmONUbK79wyDH+H/wyWeLw+s9JPQ64KTc8P/sk9I9WDPij37Dq1IPBMb+wvmzipNqzgI9JXGPs4CsK+9bk5wWHALikLW0JpOeFK4pe9H8men+gNfgIDxXc0g2JIckz0/vB2VAyJo/a9uk86K5s1IPCY4TIDPu6bkhLT0gOBx5OvSgDjgt5/7jlp4inB8RGWx0SES6w0QcEmySu+++u/jABz5QDxEZH1dffXXx2te+Nh39gg5JEzq1yhYG/Jp1G0d7KERE+hkdEpHuMBGHhLz/+3//7+LUU0+th4iMDxySV7/61cVuu+02rqXhu4GrbE0C9CTojIiIiMh4YG8hHJnx7FskUgWfp35xRgYJl/0VERGRKQmGo8ajSO/RIRERERER6QA6uONDh0RERERERHqGDomIiIhMSZw7Ip2Gz5Sfq7GjQyIiIiJTEofXSDfwczV2+nLZ381Prype/MFn63dThOlzi+n7XlG/EZFhxGV/RbrDeJf95U029sg999xTfOhDH6qHiowPlv3dcccdi9e//vV945S4D0kTmjkkfDk8/7OvFdN++Of1kCnEkr/XWBEZYnRIRLqDDon0A+GQvOENb6iH9B73IRknfDls2rSpfje12LhxY/1KREREuo1Da0T6g750SOhBmYpQdxERERGRqUTfOSRb3lZMzTcWOiQiIiKTB7+7/vZKp/EzNXb6soek9v+WGxEREZEuwUtQh21Jp/EzNXZc9reP8AMsIiIyefgmWzoNtpyfq7HTd6tspbgf31LM/un/qIdMHda/6cvF3Llz63ciMmy4ypZId5joKltXXXVV8brXva4eKjI+fvKTnxTvec97ite85jV985LZZX+b0MwheeGFF4rnfvJ3XXFItn/1QcWcXQ4snvrBDcWmdY/VQ7cwpxb37M++Vb97OTPm7lrLf2DxzI9vK17c+Ew9tLNsePMNxfbbb1+/E5FhQ4dEpDuM1yEB7JGf/exnxbp169p+sz2Wt+CkjcV6MA7JV5V/rG/Wy3K4zom4cpp2y4i8AdfUIw+ropyvEbkucZ2HtUOUE3mald0sDqJsDp4ThNygmQzCt9tuu+SM9NPLZR2SJvSih2T2DouLnfb9cPHE/ZcVc3/t8GLdT24vNq77STFz7mvT+bWH/s/ilw9eXTz3iwdS+pk1B2SbmfNqzsfadH72Z/cUs3bYp3jFHu9J6Z9cdVlK10l0SESGGx0Ske4wEYeEfL/61a/SlgNhgGJchhMRhmojQ7SKqvQhBxrJy8PjOs8H5fucPC6XlRNpOLfjYARV8hqV0YwoP6ccFjLL6ZpB2lYOH5TL4T7yBHn+iItzs7gZM2YkZ6Sfvud1SJrQzCHpVg/J9Jnzi4W//ae1q2nF46v+32L+a/9j8auffSv1mnBe+O//rFjzzY+l85P3/3kx59UHpnwb1z1WzH31vyt+tvL8Yl4tTzgna39yW4rvJDokIsONDolId5iIQwIYlGFk5gZmhI2F8eaDdsqO+EFjUPWG8vNoVpfoXekXBsUhmTKT2hly9fMH/yo5Fot++89SGE5KwDCsZ//tnuL5davTPU7Hpto1Z5yS6TMXpHB6TF7o0pAtERERmXwwLjHcOOI6DxvLMd58HO2UPX369Mrwfj8GVW+O8vNoVhcZH33Zcjz4TsOckVfscWyx075/WPzyX7+cejheseexNUdlUXIw1v/igeLVSz5ePP3jr6d7nBCOuH5h49PpTL55v3ZEXaqIiIiIiEyEKTWpvd9xyJbIcOOQLZHuMNEhW81Yu+H5YvW6jcXer5r8YS+r124oFs2bVb97iXvXrC0OWDivfrdFx3vXrEth82ZNr4du4aGfP1vMmzm9mD9z29E40j+z8YWtZDcqq0zkzeVJ/0KvjUO2RERERAaYO374VHHeih+laxwBDoz3Ox59qmacvzAaDhj/eVyExxlj/qaHf57SEEY6roOIIx1xF/+vx0bTIjvi16zdmMI4uF/+8C9S/ov/6SfpnJdz8f/6SUq/tuZERJkP/vy5YmXNgeEaSHfFfT8dvY901IEz8ZzRgfa4uV6eSKfQIRERERFpwB0/fLo4cu8dagb82prh//OCQeXn3fnDYs06jPg1KQ1xGPHXfvfxmlPwWLFo/swUd/PDT6b4m2v54KGaI0B+0iBr/qzpxZU1RwAw/kM2zgFxOBE4Dg/X8uFY7DpvZsoXuqyr5fnjO39UnPjmnYvVNX1OfPMuSdZFNfmkXVHTHVbXHRj0WLNuY81B2eJgIDegbOSuqIWjE44Hx/J/prx1NVlbHKSlr3tlcdr+r7F3RDqKDomIiIhIBfQM4ChETwEsWTgvDW1iCNfS3V6Rwo7a61XFJTWHAcdg/syXDPXNNTM/8gHXaze+NLQMWcFN//zkaBzGPuPpY0z93q/arlbmzGJh7cjZa8ftamki1bSUDtBhi8Ow9ah87ubN3GL6Ie+lvEWSvfeOc9JwLPIesHBuShNlU+ej9tqhnlqks/TdHBLGgG5YfWsxa81/r4dMHZxDIjLcOIdEpDt0aw4JPRoY9xjr9B4ATkQMmVr6ulck450hUh/++iPFX737DVvF0cOBU5Pne+jJZ0d7FwhDbi4Tp2DR3JnpGvap3UOa81ELZz4L5QFOEcOocjmQHKgfPpXmlFB+zA15sFY2PSGkC91ibgxyw5kKR4x0W+bPbJecKXptogwZDAZlDomT2vuIjfveOBAfGhEZHzokIt2hm5Pa2wFnAKO/3IMh0mt0SJrQzCEh7pdrvlO8+NMbixdfmHTVesI0/s3bo5jzuuPSh6Ybyx6LSO/RIRHpDr12SET6FR2SJrR0SH75y+Lxxx8vNm7cWA/tDGHoN9r9lPg8Lr9vdF2mWVwj+LAsWLCg2HnnnZPBIiLDiQ6JSHfQIRGpRoekCc0cEox5HBHiGb4FGPlQdggaGf95eKO8OZEGqtKVZZRpFZ+Tp40y+LDMnDkzfWC4FpHhRIdEpDvokIhUo0PShGYOSUAaCMN92KGOU6GeIlMZHRKR7qBDIlKNDkkT2nFIRESGDR0Ske6gQyJSzaA4JI4PEhERERGRnqFDIiIiIiIiPcMhWyIik4RDtkS6w1iGbG1+/Lb6lYyb2bsU0+a/uX4j/YxzSJqgQyIiUxEdEpHu0K5D8uLTq4oXHzirfifjZtYuxfT9rnYxngFAh6QFnd5jRESk35k+fXo6RKSztOOQsGrnhifuK7b9wcfrITJeNs/cqSje/JfFjBkz6iHSr+iQiIiIiEwC7TgkjM741U+/VWz34/PrITJeXtx2x+KFN36h2G677eoh0q+4ypaIiIhIH9HOBsbSGltROo0OiYiIiAw9WzYgrt/IhNG5k06iQyIiIiJDjwa0SP+iQyIiIiIiY8IVtqST6JCIiIjI0IMBbSeJSH+iQyIiIiJDz5YhW733SGbvsLiYMXfX+t1LbDNzfv2qMdu/+qBaunn1u95CezoMTjqFDomIiIgMPVuGGPV2mNGrD/h4sWCPY4qFv/2nxZxXHzjqhHB+1T7vK+a99ojRMJyWcFzivMUZmVbseuj/HE3XKxyyJZ1Eh0RERESGHt7m99qG3rj2sWL6zAXFE6v+vHj2Z/cUrz30f6TwOC/Y89hi0W//WXJWCMNJ2f0//X2x074fLnasHfNe+x9r+ecVM+cuSudesqU9dUqkM+iQiIiIiEwCz/7bPTVn5P8t5r/2iGLerx1RD32Jp//1huIXD/5Vsf0uBxUvbHym+NnKT6fzE6suqzkhr01pNq1bncI49xqHbEmn0CERERERmQTm7HJg8eolnyhm7bC4WP+LB4oXN64tdlny8XpsUeyw+H2pJ+SZH/9DPaQahmvRi9JL6B2xh0Q6xbTVq1dPunv74osvFs8++2z9TkRkajB79uxi2223rd+JSKdYv3598fzzz9fvquFt/trV/1TM+cmn6yG9gXkgOCKDzAvb7li8+MYvpO80nZL+ZptttinmzJlTv+tf7CERERGRKUE/2M6D7ozk6IxIp9AhERERkaHH+Q6dxzaVTqFDIiIiIkOPb/M7i6tsSSfRIREREZGhBwPaF/qdQ2dEOokOiYiIiAw9GNAa0Z3D4VrSSXRIREREZOjZ0kOiEd1JbE/pFDokIiIiMvRs6R3RgO4Em7fZsoysPU7SKdyHRERkknAfEpHu0O4+JE/9fHXx7I//rti86aWldzfX/k2r/Wubkl8zmj8LT2FhrBNWu6T8CEvXkScF1M9AWD3PaHhVGJTvoSqszla6Bq3yl+6pw7QFby5e+WuHFNttt109VPqVQdmHRIdERGSS0CER6Q7tOiTr1q0rnnzyyWLTpk0pDHsknATO+f14iCFME5EReXNZcQ3l+4CwPG+kwyCtSt9ITlAVH/LmzZtXvOpVrypmzpxZj5F+RYekCTokg8WDDz6YjiOOOCJ9CZUhbu3atcUBBxxQD2nM2WefXRxzzDFtpZ2KnH766cW5555bLFq0qB4iw4QOiUh3aMchgRdeeKHYuHFjOo+VMNBzQ51raGbYt6KVYwDlNFEuNMtbla9R+lZ65PF8j+GMYOxKf6ND0gQdksHixBNPLO69995kKJ988sn10Je4/PLLi9rnqLj44ovrIY256aabkjMyCAY39aLe1157bT2k89Buhx12WPHwww+n+6uvvjo5fjokw4kOiUh3aNchCaoM77EY5J1mIrIb5Y3wschuJy1pZHAYFIdk+plnnvmp+vWkwYc9ukulv8FgvvDCC4ujjz66WLVqVerdAHpFPvKRjyQHI8DReP/7318888wzxac+9aliw4YNxd13311cdNFF6fotb3lLcc011xTz588vnnjiiWJkZKS49dZbU9iCBQuK3XffvS6pSD0ul156aTruv//+4sADDyxmzZpV3HjjjUkfyo086HjOOecU119/fbomLfmvuuqq4vOf/3xyKvbZZ59ULs4V8VwjB71CF3QlD3J33HHHVIc1a9ak7v2DDz64rtmWuhNHeZRDvXAkyE95yEdPdEfPxYsXJ3lVetJj9OijjyYdaVvyEE56HKIq/ckb4aSlXWQwwBnxjaJI58EZ4WVnu2BUl49G4XG0ip/IMRHZjfJGeJzbOdpJK4MFz2zGjBn1u/7FX0Zpyj333JMcjTPOOCMZwBjgwNAijGR6TQgH4rjG4MKBweDHGF+yZEkyoIF4HBaMaoz1ww8/vNh7772TYZ4TMq+44oqUNnphMOjRBeOdPJSJkU6PArrg3JD3sssuS/LptWGYWcgPuYBjEbqQj3qGLhj/oVu5Vyive/SiPPTQQ6m8SIuDg57cox964qQgM9fzlFNOSemjd4kwdLrgggsa6s+XC7Jvv/324rbbbkvhIiIiIoOKDok0BcMZgxjHBKOfnoAw4nEKMMyXLl1aT70F7jG882vylMHYJ64qnjjAqaEs4jG+cRo4cHhWrlw5qguGP7rcd999KR4HgTB0Rn7uiFRBHtLhIIQuMV8mHz5FO1DesmXLtioP0AkZ6IkDgrNC+4WOpCM/dSL+scceG5WdlwHN9EcOB+WLiIiIDDo6JNIQjGgMY3oLMIgxjnPDOAx3jOtOQ48A8ulNCOcEPdApwOAPQgd6IdAZZyL045wb/CEjl9Uuu+66azrn5ZXloCfl0bvBMTIyku7p3WGI1ZVXXrmVPlXk+kOr9CIiIiKDig6JNITeEN7Eh2HN8CkcEuZVnHTSSclp4GjV+zAecEJwLOhhoDygpwAYMsUwqDvuuCMZ6gxfOu2005Iu9D5gzNPTgSNAWuawxNwX6kM68reCHgh0wOkIKI+ekCOPPDKVGUPRctATZwKHiaFXOCLR20IPCWHhbBDOgZ45uf7kD/1FREREhg1X2ZKGMMci3vYHOB8Y6hjRzGHI4wnDgMfox+Cuuo78hHHEdcTnlOXHmXB6KDD8w9BHLj0VeRj3hJMvZFMWYfRUMGSKHo9mupAWyrqVy6tqq7KepI90EO0YeuLocC6H5/rn8chCf65lMHCVLZHuMNZVtkSmCi772wQdEhGZiuiQiHQHHRKRagbFIXHIloiIiIiI9AwdEhERERER6Rl965Aw+bd8MB6fcfOMre8X0IeJ152GusaysWOBtmEORDswab1Z2lbxE4G5EN1ot36FZ8mE+0bE55rn3q027zR8PniOUxmeF99NIiIiMn760iHBMGP1Ig5Wc8KQ45pwrnttALBKUm5cdmPn0tjYL5aZbRdWhEK/dsCYaubctYo/7LDDxmQ8oxdGbDDIO77SLtS/WfsE7EsyMjKSJqM3Ij7XpG33+U0GPK9GjhQ72vMZ6SbNyh8vrLDWKafvgQceSKugiYiIyPiZfuaZZ36qfj1pbN68udi0aVP97uWwChHLnHLgiPzt3/5t2iRuxx13TEY68Zx5O/uWt7ylmDVrVnrDfOmll6aw3XfffXQlowBDnTfyEQ+f/OQn00pLq1atSnJ4i43cWHEJWCnpqquuGs2HAYpOjzzySFrdiLKffPLJlD/ibr311lEZGJksT3v33XePOhjUI6esG3X5whe+kOL23XffrQxZ5FFGXs8olzI2btyY9KHtYi8PZGP833XXXcX111+frsmLjN122y3lR8f7778/xSOTlZ0iHp2jbQijrrQJeWgHVqyijNDjne98Z8M6Pfroo6n+GzZsSLpxxlg/+OCDU/3QmfIIL7dlTlU7YBzzGSjnwailXqE7z6wqPzpTB+557rQn6dEJqDPxhGEkk5f7Qw45JLUd8shHufH5Qw+WHeaZUG/qWf5MkZa2DX0xlnl+0Z55fSh35syZqY3Qi89gXEe7kYYy4jnnlJ8jbRHE31DkRRZLPRNOOegQn2V044hnybP9wQ9+sNXni+dBPSkPiKP+VfWiTNqQc7QF6fLyo33Iw98u7UZ9QkZ8xtCDzyXtEeVHGp4x96Tlc4uu5TQQbZE/o6rPFzrSJnw/tQMT2plgKCKdhQntLJgjIlvD79yMGTPqd/3LQP4yYgBgTGC8YGxiFLBfAwYIRsJRRx211ZtbjBAMIJZfxRnCeCMeI4Q9LsiHYYNc0hAehg5GdeSjDAx19sjgjA6UjR4Qe1tgTOYGK9dhoJb3v6jSDX3yMgL0ydOGLPbDwLFiadjQBfL6ITf28+AaQr/QkQ8txJ4YER9GHPVCB8LRAThTN8JCN4w50lfViSOMR3TlOpyZyEe9q9oyQAfCQn7oSzvwXPM86D5Sc3hCL54rZdHzRttSVnxeSE8aCP0AnXAS0DXkIg9Ch5BHmnIPRyzZy7K+9ICE7rRb+fOQU9UGlMXnNNqKg/pEu9EGkSfvjQLyh+44ZOX4+BsinjjklT/r6MHnhHpGe8Xfybp161Kd4u+LdkAv5BFf9XfCZybkIJvykVf1txbE327UhXw859CDzzn6nXXWWek6yiEN4egY7Y+OlB1p4rOIjuhC2fH5OOGEE1L5uTwRERGZOAPpkGD8YdxxYDwwbAKDAaMcQwujDSMj4BpDBCPkvPPOS5v8BbzZXLp0aTKWeAsbRhPGDgbLsmXL0jUGKQYPYRwYKhwBZaALO4tjgFJWyOKectjADxk5pKEepGczvCi3qoyyPpQHXH/4wx9OMpCVE+1EuY10gGY6YphRFsYa6ThoT+BMuwG6URZhPCP0XLlyZcpLPRrVCXm0A8+OOvD8yIMeGH2kIS7gnnbOnwsH99QBeXfeeWfSA8OVMOSyQzrXOAWkQVfu0Z+8zYi06M7nLOqPnKhXGMV8xoKIizf8lMMZfWgj6kkdysTniedBGaRH/hFHHJHainh0Qh5tQxrKoDzCSMPzyKFcPuvE8/eC/JyoA7L5Gwnd44g0yI36BxFOG8XzQA5h+eeS8PzZQjxbZEY7k7eq/Bzkhux4fqTjs8E5ei7iWXMfenOmvfh88HdHmvjMog/xUZ/ly5enzyTPCWeEtLQj8kRERGTiDMXYAYwrwFjgwPAsG0xhNGMMYexUQR7yYwRi1GC4Mj48jJVmYDxB6ILB1Q7kazdPM30ib9nI7ASUt2LFimTU4ZS0muOAockwJfLxdrkVyMWAxjik/QOMTe4xjvPwdp7Lt771reQ48NyjbThH+0SbA+Hx+cjDx8LNN9+cPjfIL/fQNaJZmvg8BehIGD0GXEdbhVFNW8G111476kzQNrmzw3PD4A5DvkzkpQ7MjxlvWwTkbySj0bMdD830zJ99FfHcATmRLv87wkGJMib6OREREZGXMxQOCcYNhgKGMMYDw1ZyA4S3yhhtDCVhKAjGbxmMIsLpbWEICOkZmhJGCmPZA96+Ytjlb0gJw0CmjBhew9vVVlAuZTGUCCObPLmRlBOTiNGHPAFva6PcqrftE4WyGMJCubRJGMvoiYNSNs5i6BfpebsckB5Z8TY74PnhJCKHuiCftiQtz4O65Xmqngt5cGx49rQDb7cJ49mPjIyk9qUOyKHNyYtcjiiPZ0iZhFV9RnLiGcXQvkMPPTR99giPowrKJh064iDgBONklCl/nuJtP7qSh3oQz8F1DGnCkeDvgDf6VXrQbtGTmEMdyEu983yckT+e3gD0ZWgTdYjPa6tnW6ZZ+dE2yMqHdEF8HkjDMyJNOD7IjM9tVZpw1gjnoA48D9Ly/UFa2inkiYiIyMToy0ntOQwXwgCLybdxj8HBsccee6RJpxgRGBikY8gMBkTANcYDbz2ZyHvqqaemicHkDdmEk44073rXu5IxhdyddtophX3wgx8s9ttvvxRGHsIjHzqFDhjLhPO2PCbDRjxEmQFlMtGXSbhMjqYcIB/pyvUIfY4//vhUNmmYRE56ykXvaJNoq7yu+XXEc67SMeLDWEfHaBug3CeeeCLlIx1H6M2Z50HaaDf0RX/aiMn6oWe0I0Zl6MDzign6DKkJIxFIU/VcSEO5TLKm/UMnZJP22GOPLY477rhUXnxekHP++eenMMrnHhnkjzaJdiAN7RD1QAb6UT764lTl8gLkLV68eFRv2o22pP58VkkbZXCOcqMNqA89doQB6fiscB/PKhYFiHohMz6DAc+RncKJRzb54vNF+qgP+qIXE9apa7Qp7RP1gNA59Ijw0InyCEMG1+FUVT1byggZcY2MvHzuAf1xKD73uc+lzx/1LMuACMPZ4m8+2oi2i89t/O2QJnSJtih/PiIul1cusxVOahfpDk5qF6kGm2sQJrVPqxlqm+vXkwZfGs8++2z9TkSGEZwGDnoWcEZwSnCsJgrOJb05DCPMHfZBAIcQp0REOsv69euTUyIiW8NLsDlz5tTv+hcdEhHpGgy3woHAccAh6QT0UDA0sVPyJhMdEpHuoEMiUo0OSRN0SERkKqJDItIddEhEqhkUh2SgBzMzxpuj0/BGN5YkbQcmCQNzCJpN/kUmsstE/rFAnm7UvduM9ZmNpW2q0lIWe2qMZ1L2oMBnqpf1G+sz7XemwmdGRESknxhoh4RVisqbu3UCDLxWqyzlxN4OHI2WFAbiq1bBIn+Vo9IMVuTqRt27DTq3WjY4oE1om3aJfSRyWHULwzJWjRoWaEdWe4JWn7tuwzLMsSFjvxIrm7XDZZddllZmY2iYiAwGTNzlTbCHh8fLj0Ggr1fZwil49NFH0wo29C6w63Jc8xYTI4xVbjjffffdadUf7on70pe+tFVYOAN33XVXGjbBajnlNAGGCF9urPCD4ceKQNG7ESv9YOCwTCjpYrnQWKGJFYG+8pWvpPyA4UgZwIo8rF4U+Qln4i+rD6Fj1Jc6ffOb30zlUS7l57qSl3H5rHwUsnL9gqq8tCurPNEW6MNqR+hA+eW2iHa7//77U76Ij/a49dZb08pLIQO9ox2A9qNsngn1Qh7XjP+/6qqrUl6eBekiH7Ipi2vqxSpKEOF5PSnv+uuvT7uEUw4rIcVEZ9ISRx1ZWYk6UO+yznm987bhTBhpGrVtxKEH9aLs0Ilw8nM0+hyFjLzdym2L3rRDpCGOpWj5rHDP5wmQyWeNz2S5nPLnLdo9wKngMxt5KCs+w/w98Kxiad3ycyBtONqElz9DUJYPXKNL3v753y4QDlWf8fi7ijaj3qyexd8NOoUucOmll6ZySEv+Rn8z5EMn2jVWfSvXN9oDWfE32i6usiXSHfjbYiUhDw+PrY9BGSbc17+MDMHBkAPebsY1xlgQBi7GRbwBZb8JnBcMBq4xJDBAzjrrrBQORx55ZLrGiClvZBdGCfCmNORyDsOEt/Fh+AWUgeEFpEUmstAXXdCRvRdIF/njLTcgO/KTL2Tz9rmRrqSntwTDi/zom1OVl3Tsr0A4bUwbEU8c1zl5u6FTxFOXeA7IoD2RQTpkAz0h7ENC3QnjWQWURf54C43etCt1pu3Ik7cN16ShnuQjHenRB1m0Q/mNNjKA3hGOqDfpo95cR705k4ZnzzV6sO8ExLPPIQ86YIwTT1uFTpRNfaMt0J00wDn0z9uNfJC3LXVCh1we1xxRL8qNz0q0Dfn4XJCHez5v5KEd83YH4tnIkralbHTN/wZoi9An8iMrygLKoR3yz0hAu4V8ZCIjf3Z5++efGeod+sdnnPzRjpSPHIi/LcqPzxrXsTFntBlHs7+ZSBNtG/WNz118NuJaREREJk5fOyRsaoeRg3HBW0gMDK4xCGKFHcJ5g85GeMTHgTGB0cU5DEneeLLs6NNPP50MGeLoreEIR6AK8lBG6ICBRPmUWbWMKemIRyZls+wpZQWE8Sa/Uf4y1113Xdo8DyOaOuXGZGyWiF700mB45kTeyBd56ZGhbPJBbKRHfLztDqgPusYu3hHPcCraBYMYIy5k8IxIN1Iz9CiDstgFvJ0lWmkb6kGe6BkBwqMNODMMi/bFUKQMdCvDM0AvzlF21BudCeOag3qjN5CesnlGUUfaINoOyE+7Uy75Qz6fDcokLWHRFsCzCbmEoX/eboRFWj4zpEUGmz/G54d4wuJA1zLspxF78dBePGPKLLdpgA7UhbQ85/JnKAfDH9nxTKPXBD1oB+KiDgFl45Dwd0c5xOM8UG60P+1IOyCf6/wzQxjtwYF87ptBHmSQlucQnwHakOfZ7G8m2jX+hvncIYeyaZvcCaGdCRcREZGJ0dcOCYYBRgRGAMYBRzgDQRhqAcYHYKhyYDRE+khLGo5Ig8ERhlW7YNBAlFcGwwfDCYMGx6pM6BJyyoTxi/HGLuC8Qa/SkbqFwcqb43gjD3lejMIqopy8LcptGkRdc8M84FmFDIzBcrsQ3qitoEpmrgftFM+M9sSQnCiN2r4dynXJ71u1RU7UKdIGUffoHUBX5LZD+fmRt9EzBT4bseM9ZdErkJM/m/wa3ZvVLaDXA4cERyB2pUenXNbChQvrVy/pzxn5cQaclqrPylgo/81Ej0sV6IkjBbkeEHqKiIjIxOj7wcwY9hj1GOMYEhj5jYxrwGjj4O0nBgPDvMqGJ/HE8UYYAyeGgrULuiAfw63RBG0MZnoSKJs65GBQ84afcjE4A/QiHLnxFhjjiyE9S5YsSW+Vy5Afg4q2CWMvh/LJ26gHCD0pg3bA8EKnspGZ1xUdw8ELaA/qigzaNOpEOvJxz9AknmNA+3MQnztRtA11Rw/iAt5E09tAHupCW5C21XNoBPVG18hLnavarxHxGUL3GCIEeVugI3UnXRXoH22PLlVtT3zolvc8IJNyqH8rqCufq7LDGkRbx2eIcnCQOJMnfw70XHBf9UwbgRxkh87A3zB1Qz7tH0PKSEcY8gmjXWlTXkoQxlCp6JVAV8LRJ9q/GZRNOuTk9UWPRlDWyMhIyoNTRR4RERHpLH09qR1i0i5GFRNMmYiLMROGGxOWMQ6BtEzCJX7VqlXJWHvXu96V7jHqMbJyGRgnTFw+9dRT0xCNnJCFrpyjPCYDY5QgC/lvfetbi9122y0ZTaTJy5g5c2aaTJ3LJv++++6b5KMjRin6k//ggw9OE+JxIujZQRZhpMXwy8tCNrKoB2URT1swJCcmK4c+5bzER7tx/c53vjMZrJQbw4QC2ojJ2OSjrfI3/pRPWvRDTyb4kvaDH/xgCkc3FhBABs8P4y6eA21Cu9KGtAGGIfe0bbTN8ccfP9o2oTeTndGd9uFzgRzS7rfffqld82cFPD/iYuJ3ud7ohk7/7b/9t9F655+p/Jr6hhzyUz/ajGeM0U066hltgdyPfvSjSZ8qPdAdGbQ97Za3fZRFfZiojZ7RHoSRn0n5lIGcaFOItooyaRd0QlfqjMOHYxHthDzk5J8hPsPI5JlXPYf8mQLPLMonnnQB8nlGtBGyou7oQjhl176HkgzaA8eBcpH/jne8Y/SZUibtEp9x2p10yMPpjzZDDnkgdKE8/rbQgc9Oub6kyyE86hz1RTfSQsgt52uFk9pFRERejhsjSlPi7TPj+WVr6CHAKGW4EW/uY75Ov4HhjX5M8MYgxwFasWJFPVYmEzdGFBEReTk6JNIUejCYg1IediZbhiIxlAdwTPp5OA9OZSw+QM9Do2Fk0l10SERERF6ODomIyCShQyIiIvJyHMwsHYchQs2oimd+Q6t8Obzt7wb0eqAH+vQLY20beTk815hQLyIiIv1FXzokrHrDakBhFB522GGjQ2Mmk7322isNdek0GEfI5jwWaIOJGqbIKG9cl8MKR2HsM3+kalWmZjDECxmNDPo8nnJiXwdWmWKeQyPIF7rE6kyddhp4HnzWYoWzbtPu56tV2/QbPJuxfra7De0cnzU+163+jvis9VsdREREhpW+XGXr1ltvTQbYq171qrRaDoYEq+Swog5GAisAAQYpafMwloRlWAQGB+GsuEMajFhWDQIMYQyUPKxKFjow3p7lW5HJ+HviyUuaqjx5GCvwxEpGOaShTqx0xFtb9Lj//vuLRx99tKEc7tGHNiAN9SKOejaqR14+7YJ8VhqiTOpVJpwFVnyivblHXizXSpmxqlC0IfLzOhIfq0OVnwV6RzzXX/jCF4qvfOUrqSxkExb1x3Gi/JB//fXXp+VXY5Up5LASEueq50l+8lE2KyrF6lZBVTvxTJDzgQ98YHSVpoC6sCJU6INutCfOQrltgiq94plFeTwH4nNZtAH6R5vxPKJtqto0p9Hzb/czD+W2Jx69aHuuKZtnVqULZXzmM59JOsdzgpARdazSLcqDZroR1ip/hOXPHjnU/6qrrhqVy3Mrtw3X/B1A1KFZGXmbtsJVtkRERF5OX/4yYiwAk6kD3lpj+PDmEqMEWOUIg4BwVhCCkZrRShrCTj/99NQbwDV7GmAIkZfN3yiDM/m5ZgNB4nl7GsZIwKpE5berjfLkOjXriQjQB31jnwhkQS6HeIweDgw1DgxG0lA+9Qj9qspHJnsoEEb7NAK5cY5r8tD26HbaaaelMPaNQB7lUEY8LyAf+gBl8QxIRx3QMY+nPkB+DNVoQ9JSJvl4ruSJMuKMDPKXn2e0A9fxOYh2yim3U1UZAfVlIz3aPPQhH+1RbpuAvT1Cr2gDrqNcdAtyWYSjT6Shfnnb0O5Rr4jPqaoXadAhPivc57rw+YjPCvWLto9ni+Edn0t0QQZU6RLPND6vATKQN1L7TFAX0kN8NnN9uOZvq5Fued3ydo786BFhJ5xwQgojD7LIkx95Wtqoqg5lHWlHnLHIx5l8IiIiMj760iGJt/f0IAQ4FFdeeWXaCwADA4MAWNmII968RhhpWYI18vF2l56OMDZ4w8tStqTFqOENJ+nZVwGjJwd9IoyyuW+UB/m8QSWs3aVV0YX9PZYtW5bkhyEUctCTNBxRX4wkzpTPClhhiJOWdou32UAcO7BTRrPVspBHmaSJ5WtZPYp8YXyh10jNqCQN6SkHY68R6E9+zhj0AeXwLMlPXE60BfLpTSNfpIl9IALqRn0JJ0+0A1Dn/NkHfHYwRimHI8IalYEc6k/7hz5Qbpsc9rrAiKVs6opBjtEazzp2Rg9CVrRJXJflAnrG30I5/uabb07tQdvF86JNqNO5556byuVziy5RDp8ZPtPUi4MwDuKbPVtAh/zvkjP1RR75c9CJ8mkv0gK68VkiLW1DeXk7lXWj7sgBnhl1pDzSU/eodzks4JqyOHMgG51ISx7yUgeIOtAzmeuIfuvWrUufIcKoP2lFRERkfAzs2IF4w4kBwYERVl7KFAOjDIYixhlGBW87MYiQA8jhGicmB8MFQxQnIO4b5cEAAt4CMx8h0jUDoyYHvUMOxhtyqkA25ZMeQ41r6oRzVFV3GOtyr5E+5EV9omzaAiOtEeX87UB9cXooo1U+0kQZtGPoB43qmueBcr4y6INRWtanWd2iF6ksN9KW8zTSdSzgfJQ/05DXl2fFMyNtfO7QJZwxiHDykK4Z49E7rzu6ccRnCceskW5ck46DsNgkkb99/p55Tjg65TDOjeA5hUMZZVZR1pHycfBwoOjdyh1hERERGRt97ZDEm+gq4i1mGFgYImUjrwp6NpCLMUFejIwwgpCJUUJYGQyQkZqRTFlQlYd7hn2Qlrf1IYcy441wO5CPIS3IKb99pxeIe8rHSIp2iPIZM08+rgPqiQ4YT9QhIE8uO6AMZFdBXek9wRClnOiVGi+Un8tAb8JoP8oJ/eLZ0tOQE8+F8Hjb3grajHJIT5vEm/1GoAMGbq5PKxiCx2clPi/AM6MsysQQ7jRhNKMrDnSQtxHGM84yu+OjI2HoguHOs+W54nijI88Fo5+255rPULuGN/kbfYZyon1o/0jfSDfqhC7kQZ94hvSO8vccf4foH2FVz4w6EhZHPKc8HWkoH52qdKR+xOP8UEaz7yoRERFpTl9Oasfo4OBH/5BDDimefPLJNLkUgwODgCEn3DMpFYMEY+Bd73pXse+++yYjZc899xydwMrE5zBUyMNx9913p14EDHUMCvJRXkx2/eAHPzg6aRwjkkmx3COP9KQlbzkPejEBljAmn3/sYx9LxgqTc3feeeetJudSJwwvJv+SjzjqhkOB4cM55Jx//vmpDpSJLMo97rjj0gT1MBDRCxlPPPFEqhsyyYMs6kAbMXH++OOPT/kxsnB6ynqRh3YnbMGCBanelIs+6HfwwQenZ0IayqE9MXhzqBvl5u3PEBdk0R4RTzj1Qy/aAvmEox/1onz0oAx0QB7P7p3vfGdqc/Lw7DA+mRy/3377pXbgGUR8XCOD8oAw7pkoH+0bdaQMdMihLUlLPOnIy2TuqrYJCOdZIR95tAPxlE27oSufK55NLis+3/l1fDbIn9cljwfaDV3Qlb8B5Ecb8fwx8imXzyp5KJN25nP0uc99Lt3TtvQoxN8Uz5a0fK5wAhiaRB2oU5Uu6M19fIaizYlHNz53eTtTf54pz482ovxmun3pS19KiwscdNBBxTve8Y5UZnwWqSvOWB7GZ5VeUf7O0JvykU95pEMH0vEZJC0OGPGRhvpRbllH6pWH0aa0fyuc1C4iIvJy3BhxCsPwnphjISLdB+fTjRFFRES2RodkCsNbcN5oi8jkoEMiIiLychw7MIXRGRERERGRXqND0gJ6EfoZxuZzdAPqzjyByWIsdZlMvVqBzv2gT7/o0QmGpR4iIiLSmqF2SGKfAmC1nthcrl0wyGMjvEbkZUwWsY8GsGpSs2VNxwtyYzO9yaJVXYiLejMhn0na3YJnyupO7TzbG264IbVVJ2Hjv7G2Pas+dVqPKlgpbCyrxvFcWaGrXZDN/CbgbzDKon6xSWIj8s/IWMsVERGR3tCXq2x1AgzJ97///WllHVbTYUUcVuxhAjcrHxEWYPQQxqpOpA9Y2SdW5SENK/UgN/KXy2CVHYwhVuxhJaH8HtmPPvpoWq0IOXkceblGbq4bZTLmnLDIE2Vyzeo+rKDE0KtcHmlyGWW9y0T9Q2fSXnrppWnlIFYhytukWf3y8JyqumFc5tfkr6pLyEPHD3zgA2nlqKg3z5J42hUdSZ/XL+oVbU/enHK9Icrlnr1HWLWJMA7aJZ5DtCvX6BOrsVEX5BFf1RZB1Bm982vy8cxZYY1VtViNKsoJQu/ys+TzyipmEd4oXeiIzKgvacptDoQhI+Rw/8lPfjI5S6xAlcso1zfaiJWo0I02gqoy82tWuuLvjjZhCV8cEtqYv19WxGKlr6ryeD7sBxSfEdJSLmnK7dCobbqNq2yJiIi8nKF1SFauXJmW/sQgwsjFAOEe4wYDCUMPAwmDB+MbYwYDNJY1BcLoIWEp2Y985CMpP44N6TCGWcq2XAZvcFnW9gtf+EKSz5K07KlBrwaGEcYgMjD0WcL0b/7mb1K63/3d303LmWJEhW7vfe97U1oOencIwxDkHmOMMglnzwRkI4N4ZKA7Bi16c0+9Q2/yBdQfAzPXGT3yMsKQp668gcdwRBblYiRSP+pFORzlNszrFnqxvwpyMArZQBDnB12RCbRjXg7pvvnNbya5eb0JR3/0RT46Un5er5H6HhyEB/lzp97Ekfbtb3/7aP2JwyEhLXoQTrk8Z3pn4plgHONAIIN9UIiP9mYp2bIjBNSftsNg5jNGGq5/53d+Jy3pTF2Qkz97nh1pkU09+RzndWKZYdoSnSMdMlgGOE9H2fEZC+eCNuU5RZsDDgf6UG9koRPOOWfaCseB50Gb8TeQ5+P50SbkRQfCKA/Ii34sx0sPBvpwTU8Tfw+77bZbCmN5XZ4dz4Fyed7Lly9v+FnjmdAu8Rmh7dCbM21AOHrQWxrty2cgl9FtdEhEREReztD+MmIYYqSzjwJvWwGDiB3QMaAxSDDKMKK4x4jD4Gk2ZAgn4tprr01vYTF0ymVguCKHg/t8uMh1112XwtkrIYYaccYYwsDC2EQPNnNDJwxDiDIpi3SURZnI4m14gMODDNJitLGHA4YcoEuudw7pWPqXgzLQuVEZtN8VV1yR9KSskEU7XnzxxalcyoxyAZ2RFXWjPOqGk0c9ObjOIQ9p0AO9aTMMVijrBMgnHTqETjzf8847L9VryZIlKSwn2pWy0Z/2o+7xGSnrFG1I2Ri7cY3DWYa8xC9cuLB44IEH6qFbgzwMYuqKHAxp0iKbtgU+G8iJZ4+O6EoYB/nLzzNAL+pIG9AuOciLfJwph7pTLm3OwXOhLJ4lcnh2yEHvOJDDZx6dIx/PN/SiHdGT+BzKic8PB9fULf4eAsIpg7KQDejEM636rEWa/DNCXvQgjjZGN/KShgMoW0RERHrHlHpVF2/fgzD6MYowYDGcmg3hiPwYwFUgL3ooIGSRL/JiINFDhONDudyHYUU+jKYwrKBVmQFlY8BBpA1jrZmMcr7cwCuD4UYPSRirOcgI+Xkc8rgv1y3agfIxeHNwPnBgKId5HM2cRIj6RT2AcuM+Dw+QSV3iWUHeFuU8cZ+3YVV75jSLx/HBAOczQH3Rl3vaJSiXSZq45sxR5RABzgNODD0V5XklGP0Y5mGIUyZ156A9KAdHAPk4oMhBBs5HGZ5tng9Z8fxD/3g+OeFk8ffCs+aMTmXnpQrkRTuUP4dlym0Y6fksojP6TvawLREREdmaoXdIMJIagbGCcYMRxJtk7sOAGQsYUxD5MQZ5QxtvacvwZhZjG0Oc9BinGHW8WY+3tlVGXE7ZEKUOGLTUl7fdUa9WoGP0WmCgoUsjMOLirXsYeK1oVDeMW+LovSgbupSD4cjb9XizHTQywMtgaOJ0kHdkZKQe+hKE8dY/dAKeBekxjFs5QWOlrDf64ZBFm0bZZecshyFSPF/0w5jnuup50XbI4jnhUJCeZxDw7PhsUH/0AMrnufCcQh/k53L4fIQczhzIiXzIIl+ERW9J/H3k0OtFPHkoj2v0qvqbQY9c/1Y0+4ygG+3O54p6ATqLiIhI7xhqhwRjE4MKQ523oGGgY/iEIYbRSxpW9cHoKRsnkQ5DKd6k5rIoA+OQMnBEMMB4q889afKyAoxIyonhKcQjJ1a2wvCEcplxTT4MON6uRxqMupBB2ZdcckkyChvpHTD8BZ2pf8gA8pWdDozOeOtOHarqx3Wer6puGMzojkGMURgGc+iKXOJjlasYckT5OHKERVrKyusUukQeHIu8xylAFnMJWK2LeiMLPcmPnugTdSGOA/L2rNIhr3/EU98qHegZ4VnynDiTN/Qnb8iJ8olDR3RmjgVtl39eSZ/rHG1OOsrIof6UwTm/59ny2QqnpEoOOmD007Zck458OCzko3zan3jmv0T75lAWulJv0tM+8fcQ9QDCaD+c1jwcoq45VZ8R4ByfV3RDLz7zhJf/5kVERGRycad2GUowhjFKMXQxPsMQ7QU4cfTI0MsgUxt3ahcREXk5OiQylOCM0AMSw4riTX4vQBfe8uc9OTI10SERERF5OTokIiKThA6JiIjIy3FBfGnIWCYS95Je6tmLsgfluYiIiIi0gw7JEMIkcYYJAXMpqpZrbYezzjorTaCGmHjeDnn53YQymPh+6KGHdtxIRx5zPwImbZdXi2LZXMqfbHguzZ5pla7UZaxtFJPSRURERLrJ0O7UPoywshFzEWJlIe7ZTZ1dpjE22S2bI5yIPfbYY3THcVbFeuKJJ7ZalYg8eVjcIxM55OHgHiOX3cSZB0G5eR7Sxk7X3Oflh27lsoOoQ5Sb75hdpV/UkXSsjsZqXOzuzS7nkLdJfh9yQvc4N9LtrrvuKj7wgQ+kSfHExc7hfHZD/s4775yWLY6VnJCZP58yuW5RLvdRp6hX1DPqUNaR3cZjxSjI5ULoGnNmyM+O6+yAHvNYqupdDqN92Wmdla6q0svYcad2ke7AUPAXXnghnT08PLY+BuF3xzkkAwITtFlWFYOQ5U5ZMQongWuWOuWNOY4HBidvtVmelaV/2f0box1DmbfmsfcGb79ZHhWjlXwsf4xhizFLXhwR8gBlshQsaSmXZWCRzeZ2XBMfK1iRLi+f3crRk7wYtSwzzHKsAXEQ+iEHJ4D6xN4U5EU/HB3SoCdL0MakddoAueiCHMKQQbuEfOqYtxm9ODgSOBjEsTRt1AH233//JIeyV6xYUey1115bOWOU9/TTT6f2Ih5dWG4Z4vkEyKdc2mTNmjUpbu7cuZVtTRzPhmdNnfN2AHYdpyz0wlEIuejKc+VAV/KiB/A88udHbwn31AfdkEkY6UgTnwf04LNDHsqhPDYxlPHjHBKR7rB+/fri+eefr9+JSIAzMmfOnPpd/+KrugEAYxWj9c477ywuuuiiZKxiNFaBQYohiuOBwxBgdOKAYIgC1xj1GJ44CBGOXIxt8gdchzGLbMqIXb4xWNlPIyiXj5GLIUv5OAkY02WQTTzGbjhW6McyuSMjI6n+lBNp77vvviQr9KIO6INRjhzykZ/7yIPTwBmod+y/wpk2DWciiCV6yRdQN8rGAYj6BzwT4pcvX56cmxzqRJugG20Yz66qrXOoN/UgH3pQZ3QO0AN50bbxDMuE/Hh+fJbIQ70pA5k4JDgopOEIaEP2INEZERERkW6hQzIARA8FG7k1MjqbEYZ4vGXHEOaIngoM0TB0SRvpG4FBiwGPEYvMvMejDOWQHjCGwxjPITzOxNMLARjj9CKE3oARXgUOS14fiDqF/AAZUUfOyI8eimaU2zEHI54hTgzh4pxDnUIHnLSTTjopXbdq62irSEOPT14XnAWcHT4X4bC1A8+NHg+cxQCnkt4iZBEezhxtyNGo3UVEREQmig7JAIAByVAl3pJjlAYYiRitGI9jMUgxcMkbhjN5w4hvRhipGMUMxeINO70CzaAs9AfKqzLAQ3fi0SN0wcin9wMjvpnhDjgjOEl5W7RTp04QvQyhb7kHC90Ig6uvvnorRyCIZ4kzFvrHc+KeetFTEXHAkCqcI3o7yk5XFfH8cPTomaGnKED/Y4899mU9QMiNHqeoU9nhEhEREZkIOiQDAIY1RiLzGjBswzjHOcFAZZUp0sSbe4YM0bOAgU5YhHOOvBjO9LYgE3As8njI8zJkhzkaYRBTBkZseXgS5OVjpOOQMK9h5cqVWw0HCjCUWa2KuuHkUCbDjHiLj37IQa9cH+A69OUN/1FHHZXaAj0xtmkz4hcsWJDSQF6/uM7lBLQnYbGKVjlf6BLXOCX0LjDPhbbM08eQNtpgZGQkDa8ql0kaDH7qACGfeiCTduAeByHi4hlED0nIy+UG9MrQLji2XJ9wwgmjc1GAM/dRX553Xg51wpGiPPTJHS4RERGRieCkdhkzGKMx4RnHZiLgdGCgYwCLDDtOahfpDk5qF6nGSe0ytNCTEUOUJgrDmWLZXBERERGZethDIiIySdhDItId7CERqcYeEhERERERkRbokIiIiIiISM/QIRERERERkZ6hQyIiIiIiIj1Dh0RERERERHqGDomIiIiIiPQMHRIREREREekZOiQiIiIiItIzeuaQTJs2zcPDw2NKHSIicPrppxdnn312/e7lnHjiicVDDz1Uv2vMbbfdVixZsqR+1/88+OCDxdq1a+t33WH16tWjbXf11VentpT+pyc7tYuIiIh0ikHaqR0n4pxzzkmG+X333VfMmzevHlMUjz32WLHrrrsWe+21V3HttdcW++yzTz1mC6QNgz6u77nnnuLwww8fzct5wYIFW8kN8rw5kTenSk45f1mXp59+elQHzuX4I488sli2bFlxzDHHpPCccnm5jHJYTp6PtGeddVZ6AXTxxRcXzzzzTEqzaNGidM71gbgPInyYGJSd2nVIREREZKAZJIckekZ4k48jcfLJJyfDmDf5GNcHHnhgcfvttyeHBGfj3nvvTYY1b/2PPvrodE9e4jdv3pycmxUrVhSHHXZYMrzphZg/f35x5ZVXFnvvvXcqCy6//PLimmuuSXEHHHBAMtiRk/cgRB7CkANnnHFG0jHyAzqSnx4I9AldTzrppOLhhx8e1QX51I34G2+8MeUnnLzoAKShTThznHvuualdkIFDRnrC0CmcDuQRThhtQxg6IjPqg9NDXW666aaUvkp/nMPPf/7zSS7ti7NEfYeJQXFInEMiIiIiMglgPGMgYyxjPON4AIYxcfSYYBSXufnmm4ulS5cmwxvng7w4AGUIRwbGOjJzMO6Rc8UVVyQdwhHA+EcmhjhOCI4DccjBkA9HAcOd/ITjOJGuGeiCXJwC0uJUlJ0RwKkB0i5fvjyVFZAWfdHzlFNOSeXjlOFc0F7oTBhthrNBHakPB+UFZf3Jm+tPOPEjIyP1EJlsdEhEREREJoFwQDCGMf7pXcDJwGCO4VnlYVoY8UDPRgwpirAyEV4VT5n0HmDMB5RLbwFg6EcPTDgM6IJhjwMCIZdwjPpm5Lo0S0v987rnjkT08KDnDTfckPRHP9qCfNSFnhQcrGaU9eccjk+EIbNVnaR76JCIiIiITAIYzvR00EPCG38Mf3oIcDRy56TT4PzccccdqRfivPPOq4duMcajpyWGNOEEhC7ko3ciHIYI58xcDvIz1AmdY4hXK8ifg4zIi8MWQ9pySIPjRI8NQ7O4jh4O6oQj1Ywq/SNM+gMdEhEREZEug9GOIRyOSByE4aCwWtahhx5aXHjhhfUcnQODnmP//fcvLrjggnroliFROAGE4ywx1Cn0Qxd6JBYvXpx6Dxgeddppp6VwHAKcANLjTNFLgcPTCuqJDOoc4GAgAx1wRo444oh6zEuEnpRDmoULF6ayadOjjjpqqx4SwrnP27GsP05XKydGJhcntYuIiMhAM0iT2kUmEye1i4iIiIiItECHREREREREeoYOiYiIiIiI9AwdEhEREZExwIpUTK7ODyZdc8Tme72CVaRimVuWsWXSNythdRomvDPJfCyrgqEPbdUOrKLVLC3xp59+ev3u5dAO5RW9mlHVbmPJLxOj45Pa//WRR4t169bV70REpNu85c1vql+JTE0me1I7q0RhiOOYsGITK0NxxiEhjuVpe0W+YzqgEytPdZIogyV3Wb2rXWgznJjQrRmk5WDFrypaxePMoFu7O69Tp9j1HrrRbr1gUCa1d9whOfOsjxervvf9+p2IiHSTV++yc3HdX/3P+p3I1KRXq2zRS4BBHEYvDgpLzrKMLb0SbPLHsraxnwcGNEvmsoxtbHII7EXCTuG8kSc9+ViiluVqMYzZSZw0sbQu5bFsLb0EsbwtS+qSLzYPxBjHuMYBCAcJHYhjDw52QCcN8dQBvQknbZVugG6UHT0jUUaArtGrgTHPnifRK0K56Ew5OCR5/TgTR+8S19SXjRBpQ9qqSsdvfetbqT2Ij3YHdGRZYJwLiJ3vKR953KNT1CnaLepEOcikHWOXeOpBOEsmox95qtqyH3GVLREREZEpyHXXXZcM4jB6GVp07LHHFvfdd18y9jHyA4zgiy66KBnZGPc4L4ThnGA433nnncUDDzyQjG8MddLhhBAfxjv5MObD4IZwFJAFGO0YzTgD7HkSjgPx7DVCeoYs3XbbbSkcQjfK4KAMjHDCIHdGAvSjnjga1IW6omvUPYjhUBHOPWVQZ3TgPnSv0jHiOWhnnAjKpk3oscIhwjlhXxXS0jbEEzdt2rSXtRt1on1IE2UiC0eEugDPAIeyUVvK+NEhEREREekQGKoY2Lw5x7gGjFuMaN66Y6SHMQ4Y2Bi+pA+DmDNgVCMLgxnoVcD4JQzZ5MXZQW6ENQJHAuMakBsygd3jKRM9chjGRHgc6Bi7qleBPjhiRx55ZD2kSOUgH/1wDnKinpTLkLcqHYLQER1yCGP4GG1AW2zeXD3wh3Qc6EGaaDdo1m44MPS+xI72tCHPk/Ykf96OMn50SERERES6CEYwQ51wNhgexJCfYNddd00GMUYu4HDEdUB+jGnyX3nllUkG8FafngHe9reC/CEXp4L7VqAbzlMc5CesEVX64GhgvEMY9Z0Evei1oLeCiegxVAtyxy+gDujJMCvashU4IDgw5AmHjufBEDOeB/VlSJdMDB0SERERkS6CwcrbdAxm3sxj0AY4BjgrxOdzM3JwYHBaiD/00EOTgU8aDhyYfMhQ9LRQVg5ODG/6CWeIU8x7aQYGOOnp8aBc5NJT0QjSl/WhV4Q6ofvKlSvroZ0DZ4EhbLTfyMhIGqYFtAPDsRhelRPOXVW7QfSa5CATJy56eGg72pK0tE0M6ZLx46R2EZEBxkntIr2b1B5v4MPB4B7HAYMXcuci4hiSlDskQTlvWTYgDyINEIbMXHYuK9cBIn3IzePLcUFZNyjLDUJGK33y+uXXkR+q6hBpIdeJNBD30Cgt4GBE71QzPSEPzwldy+3VT7jKloiIdB0dEpHeOSQi/Y6rbImIiIiIiLRAh0T6igP2/83i9A+9v1i08DX1kC0Q1gq6TMnfDORWyV966FuLk37vvSk8jlZQHnmOevc76yEvETKa6UP+o2t5W+ksIiIiMszokEjfgGF/WM0xuPe+7xRnf+y/JoMeRwGDffWan44a+BEWhjz3HPPnzU0yMPIjL5Auxnee+HvHpbGguRPB9ZJamgcf/pfiss/9WbrmCIcBWRDlBDg2z6xdl9Khd54+ZJxWSxPhe+/1+nrOIqXHmWG8JOEXnP/xLREiIiJdhr1BmJDNxopVML+CCeHApPCYn9HPoHPVhHQZDHRIpG/AcVh+y98X02rXK+78Rs1Qf0NyFh6rOSPhNOxfO7heWDP6z/rYR5KDwP28mjOC4b/XXnul9Dg0GPrkCScEHnr4n2tOwgeKO2rySQ+Ue+1fX1+srDlCx773hBQGl3/uT5PDcMH5nxgtH0eCM6DrUe9+V3JAyJunzzn63e8oXlNLQ32Cw2tycGYIO/H3jk/5c4dFRERkLLBiVHlFqUawQhRL5bLHRhW5Q8KKXP3ikKAHv/NV+jDhPF9OuRs0K18mhg6J9A30guAk0FOBkQ44EGtq4QGGO84F53W1M70pK+/7dnFSLT2OwZo1a1IccoijZ+KZujMCOBAX/9nnak7DJ2vpX53CKBcHB3BkgnBYkB+9JKxzHs7NooULizP+6x+l8ujtyNPn3HHnXUlXyo40OFD71BwQdKGOW8K2xImIyGARb+dZIpclaAMcBJa7JS6MWHolSMcRPRTEkYa0OBb8zpTf+IcMejeQG+WxMR/7e7D0LI4GMqvkBeQnD+lJl+vezKFBRrk+lBtL51IuSxrHNe1AGsLKbRCgC3F5WwRVdQj9uCeec+jEfSy/m4cjI+of5aEbaWJTw3K9gGvSRflQLl86hw6J9A0jf/03yWg/52N/WNx0y98lR4EDHqo5KWvXrktfKqvX/Cz1LjxYM+Qx7NPbipojguNB+IXnf6LmBPxjchT2rsXR+xHcW3MWDtj/t5LjEkS59HAgk3Iolx4Q0iL3pltuTQ7DknS/LuWjzAvP/3gt7ztTfJ4+ZKD3Fh3fkO7jS5H422uOCmUCctFXREQGDwxz3s6z2R6GdRw4CGy+R29E9DSwcR97grDRHmH8LrADO2nITxoMZ5aZjQ0FIa4xopHLhnxsOoiRvHjx4rQHCDuw0+tBGMvRrlixYnQJ2+DYY49NYeylwRmHgTzoEw5NFehEPJsBUi5GOXt3EEYdOOMQxDVx7E6Pw8NGieXd4YHf4tjoMd/QENAj6oAs6hB7jITutAnhtBvtRVlAONcRjiyeUWzcGHpH3B133JF0jHqFDMpHBvUiXbl86Rwu+ytDC44CQ7roxeg36JF5aX7KtOLcT5y/JUJkjLjsr0jvl/3F2MXAxeDGEMbwxaANwz/AQCcOIzuHF2thEGP4YyAvW7asOOmkk1LPfKQhX7ylx7DGSKZcnAQM6SiPMO5xUjC+Cct74XnrT37Scx1lXHDBBcmhIB/OEuVRLvIpl3Bk4QREPjYGZMNAehPYNJE0OBfkxeDH4cGwp25lQz6cgcceeyy1XegBtF/UiTqEM0C5yA7dqQdl8gyiXMJpP5zEkEH9KYu6hBzyUi/qQxrqzvNDj2hvwuktYWd2nMa8/EHAZX9FeszyW27tS2cEGIZ2xf/4i5oj8mmdERGRAQdDGGN1+fLlo4YqBnD0CGDw4iQsWLAgGb0cEMYwaTHegTwY8BxAWtKMhSVLliSjGQcg3u5XEU5KrmeUW4a0oTcORKTDGcCJ4syBI0MbcLDxID0gOGHIzoezRY8FOuIYlMEJwXkgnrQxp2W8oC/1jPaMNkVPem8oi4NnKJOPDomIiIjIBMCoxfBn6FVArwFv2+khoBcBAxiDnZ4C7nnrjpNCXoxu3uRzIIchTGHUkzbmZjSDtMiLXgfkhyOCs1QFRjplozcHBnv0RJQhHfLQhSPSMdyLfBj1HFFPoC7ogTNBeK4HDsfmzZuTM5M7KgFlRR3IS/poE9opnKN2QTecqmjPcMaoB3oSFs+kEeQZb/nSHIdsiYgMMA7ZEun9kC0MZpwPjFWgZwDjNQ/HoA4YjgSEhWFM2jC8q8KQg6HPGUcCmcTRsxKyY5gYB9fE4QSEvIC4vJxy2lxunpbwRvWJNGXZjfJAxBHOdTgyQR5P/giLtHlZ6Es493l4tBdH9OxwHHrooan3BjlRTq4jMkIf4vJnGuUPAoMyZEuHRERkgNEhEem9QyL9Dw4Lq3nhdNC7gXMR80mGGeeQiIiIiIj0AfSKMK+G4XCsnDUVnJFBQodERERERKYE+fAv6R90SEREREQGEIYhMel7LBOsmRvBnIhOg8xYkrgdQm/OHI1g0nusAhaMp97AssvM/5D+Q4dEREREZJJgNSuM7E6AQc6Swxjo7YIhz6pS3YBljdsl9GYo1bp1WzYcriLme+SMp94wMjKSlhCW/kOHRERERGQMsEwthj1LxcYSsBjHXOfL2NJjwFKykQZjmLf97HURTkGeJt7ec+Y+lr0F8pflVUH5kYf0+XUY48iP5XublcmZfKRDb3pBYnlclhbOof4s4wvIoSeGtPmSvuiWyw/mzp2bdKOsINqDerI6FkT9c4cKWXHPOfYrQV4jXSFkVbVlVV7SUxbh6EVZXMe9TAwdEhEREZExgDHK23b2sMBIjx3O2cNizZo1aflcwrhn/44w9mPpWPYiYS4DBjppYk8P0gCGMD0H5MWgx7hHHsYxYa2GRyETB4FNCmNfDa6jBwN57DyOoR8OQ1WZHORnDw/kYXyjK0fUOQgjHchDXtJhxHMwXCrajDYKqAtpaRt0RCYOAWHM9UAmspERbRUOCpAOGcA5dEAWaWO39hx0QRYbMlIuMnJwavK86EQaZNJutAVtRBqW/6XtZGLokIiIiIiMkZNOOikZoxiluUHL/dKlS1PYsmXLUhrSco+BjdHPmQMHg/QY/Bi6pMGoxgBnNSjy3nnnncl5ITzKRG4Y3mVio0KMeuSSDwOc8nCEgLKIo2yMa9JSJtcY/ugYRj/lkf7pp59OhjnxlE1a5DaCfBz5vh5cUy76l0E/0ofjwXUO+cnLwaaTrYg2Qh665uCYUV+cCnpnol0C2iXPG/mj3YiLtojnxSHjR4dEREREZIxE7wDGKgZ8GcIiDZTnQQBhubFMnpAVeb/1rW+lM/cRxrmqTMCwRy5L24YBPzIy8jIDPyfKpXeE46KLLkqOTQ5GPHIjzXXXXfeyNM1AftS1kfGOI4exj/NR5XRE/rzNIG9nwMHCIaHu6FqGtmDYHA4Gzk/0EgEORuTFKayCdqCdoy1uvvnmdC/jR4dEREREZIyEIYuxj/FahjCG/jC0CgOf4T+A4UpejGbCyE8aJmnzZj56Co488sgkPyZvExfyGDpUVWaAYY9hjRze/mPgN3Me6LkgHeVRRtWE8ehFoHzSnHDCCS9L0wz0RSeGQOUOQA7tga5Q7rUgjnYr50d3whlOFnnDWXvggQdSL0aZSI8+06ZN28qZCMeJvKSrAl1IQ1twsFCBTAx3ahcRGWDcqV1k8ndqP+yww0adBwxYDH8MVIZgYXhHbwgGMkYvRnP0UJCOcPISTm8BvQJ5GiCMOOSFwVyWV1UmkI+09ACU0xDOOcpmeBcODJTLJC2EXsRRPmeM8nKZIQtDnjwhgzMHabgnjjPlMDSMHo4oAx1Ii35xz3WeH2eFsqJOpMGxiPBwyKIswmiLXBeucQqZ7xNlB5EX+XEmLNoN0IVyef6hRz8yKDu165CIiAwwOiQivXFIGNaDUS7SzwyKQ+KQLREREZExwOpMY5k/ISLN0SERERERGQMM8enXIToig4gOiYiIiEifwvwK5jq0C3MdyqtONYJ5EBw55I39UYYV6szEfOkfdEhERERE+hRWe2LVq3aJ1aPagRWiyqtQXXbZZWnlr2EDp462AXq3xuLkSfeZfuaZZ36qft0R/uH2O4t/e/zx+p2IiHSTuXO3L4456j/V70SmJkxof/HFF+t3vYW37/QuPPnkk8VVV12VVn/afffd02pNrPZ06623pnSEs3zv3XffneJjqVocBN7eszpWrIQVGyjSczF79uxixx13TCs8UQYrRmFcIytW8GLVp3I4O5LPmjUrySPskUceSfkpl5WmAEeGsinjkEMOKTZs2FB885vfTGUBe5FQJ/TZaaedkh7kIQ1lfeUrX0l1QQZp8noBvS+Rf+PGjcWqVatG61huC8pER9orl5XLiLBWbQuXXnppsXLlytQGtAV1p960N+Vff/31xf33318sXrw4paFe5KHtuEYm9R000HvGjBn1u/7FHhIRERGRDsEythjDGMkYvuxRwTUG+1lnnZUMRAz7E088MaXHceAaQxvjmLwYyhj19GDk0HNBjwlgsCMTY5od3CkLo5x7QBY9K8gibeyVEeUCeuVg3HPQg8CBIc6+H6Eze6OgJzqzDwn5I826deuSPvRCoAvX5WFR1B9Hgvx570zeFkcddVQqA51pi5AVe4/kOnBNfYm/4IILRvXkGnJ51AuQF88IcB65Ji3XOH3IRCfy0KaUHe0u3UGHRERERKTDsMs3SwOzNwZGO9AbQNjTTz+djF6Mft7Aw2233ZYMYnpC2DPjyiuvTD0drSAfk+yRS5kx2R5nASMb45szhjV6UC67i1NOef8N0sURcSF78+bNW+VFt+g5iTSEUz76Ex91C3BG0JF0S5YsSWE4EzgM0RaUQ52AtkMW6aOnIm839Awdom3Jc9555xULFy5M6UMHdCRf7LmSg0MX7YF8nA+cEXTlCGdGuocOiYiIiEiXwJgtG+Zh4NJ7wRHLCIczAaThjX8jcpkY9FUgD/nIvuKKK15mWJf1asZE8jaj3BY4Yq2WVI60OB7htEXb4VCwTwxt145DV0Wj9pTu0fGNEe//7veKxx9/sn4nIiLdZPvtty9++99t/ZZTZKox2RsjNoM3/vHGHSOZ4UArVqxIw5Potbj22mtTOoxmDGbe6JOGcN72M8yJ/MuXL09v7Hmjz9ArZDCMCIObfMijDA5ksUkjvQv0smDUA8OnOMjD/AlkkpbeBMqlLPLT6xEw/ApwkigDeaFzDGOid+Oiiy4qbr755tSbEGny9AzJolzkBMimDdCfM+2Do8SwKsLo1aAt7rzzztFhV2U90J924SAtdaVHJcrijDzajB6SkZGR1HZcE0aPB+XQxg8//HCqE70wtF/UnTTIoAzguRA2iBthTtmd2kVEREQmk350SDC0MYJ5k49hiwGOsYzxC1xjaPM2HmM8jF8Mb/IxHAlngXQYxHFNHuZBYMzjHJCPcJwL5OAg0MMQw5li6BbGNHlCBnkJDxkBeehdwBFCD4Z65ToTzzl0ztPk15RL3cpDpEI+epIGJyN0ytuikR5Vactl0YY8B+rM+ZRTTkl1J5yeHfIhA0eMMxPZcdDyMikn2g7nirJ1SLqHDomIiIgMNP3okPD2XbaGHggcB3pY6LnAUaCt+g2clughwSHB2aM3iOtBQ4dEREREZBLoJ4cEY5bJ29GrIFtDLwQ9HtFz1K/QQ4KuQI/KIDojoEMiIiIiMgn0k0Mi0k8MikPiKlsiIiIiQwrL/jJMalig54J5H5xleNAhERERERlSmKMR+3r0K2w8yNybdmBVLIbEyXAx/cwzz/xU/VpERERk4GC41osvvli/Gy7o3fjSl75U3H333Wl1LVbFwsGYPXt2umY+xqOPPprmOETa+++/v9hpp51SPBOyWeaXsEceeSRd51TlARwEVqUifvfdd09hkRY56DJr1qwUduutt6b5FqEfvResioVOzKkhnnLRe+PGjek+dEF/HBLCuWeVq3J9A3pG0Om9731vsd9++6U8Zd2jPdAfWTvuuGM999SENpgxY0b9rn+xh0RERESkTznhhBOScY9hycpPOACsUBU9CjgCGOpw5JFHprQc9CSQFsKxwPCPtEHkWbdu3ah80rBnB5AHpwYnI9JS5mmnnZbizzrrrNHldMlPPLqxVC4gL2ShN9ehC2lCR84c7D9CDwjORV4HiGFaa9asSeeq+oZuyEAnGQx0SERERET6FAxzDG32yWBjQ/bTqILeB9KxOSBHvtkhw7a4Z7Uo9tbIYTlbwufOnZsMeHoYcDBiw0T2CaGnAvn0eIR89uQgLYY/9+yazv4dZYenDKuPITf2FGGlLepIXuqIDtxTFmXn9Y19QNCNfUzy+pIuymYFL/aB6edVvGRrdEhERERE+hSMbQxrjO3owaiC8Nx4Z6+PRs5LDr0M9CosWLCgHrJl6eLIi3NA+ciPsglDPue4h7xHItKWeylyuVXg2MTGhezKXnagglxHQF6U1U69pb/QIRERERHpU9hMEOgVwOCmV4Leg5GRkWS005sBGPHEM7yKoVDNnJeAHgoOeis2b35pFwhkff7zn09DrxiSxTAqeh0omzK5p9cFPTiuvvrq5NQwdIp5IPSokJZw9GkFDkTsto5sVgaLneUbgT5RX8om/yDupC5bcFK7iIiIDDTDPKkdw5uJ26tWrSpOPfXU5Cxg9D/55JPpeOc735kcgLe85S3pmrRM9v7oRz+aJqPjcBCH44DBT1ryA70K3ONk7LzzzmkCOOUhB5h8vnjx4jTEClnkI4z5LPTckB99cAiYWH788ccn54ayiMNBCSchHKY99tgjxTNnhYnoyEQ/6sc9ZYc8dnInXw51PuKII5L8qC91pGcFWblcGZxJ7W6MKCIiIgONGyOKVOPGiCIiIiIiIi3QIRERERERkZ6hQyIiIiIiIj1Dh0RERESky+SbALKJHxPJJxuW0e1WuXvttVfDJXobQXr2MZkIrARGvRpBfUMvngFtL/2HDomIiIhIF2EJ3FhGN1+Kl3uOHO5ZZSqIpXnztOV8yMTwbhUWoA8ygXSRplEe7tEp8jSDNLFbe14PZHPPwXWUxUH6SNNu+WX5VSCPZYGRWZWX+KCqDJk8XPZXREREBpp+X/aXpXK/+c1vpuV4WcaWe4xwHIMvfOELxaxZs9LSt6eddlpK98gjjxSXXnppWjL3M5/5THJmMJQ/+9nPpjwskct17MXB5oYsdYss4Pp3f/d3k8FNWaSnXIxzNjm8++67i6985Stp2Vzi2dMEWVV5QieW20UPdELfMhGHUY/u1I8yuCf8/e9/f5KJHOIpm3KpF0sKs4wv5QPh1AudqspHv3POOSelpfeDOPZpKUN5119/fWp3lht+4oknUvrQjXZAHj0nyCaeNqRclkAeBgZl2V97SERERES6CPtpwLnnnju62R+OwZVXXpn27cBI5g39ypUri2XLlo0a17fddls6s6dGpI3rvffeO+XBQcHoRN61116bDGzCMfDZvJA9RNg8MX/zzz4elInzQVyzPBjv7BuCTshvZxd00pMWpyHKRU90DzmkWbp0adKberGJImFc0wY4JXDJJZcUF110UXKOkIWjgm7oyF4o5X1KcpBNmZTDAaEbeWMoF/LQi4N2RReZXHRIRERERHoETgBGdoCRzIFhzqaEUOUEkA9wJnB0GJYUc0TCCUAOjgAGfqQHDPWFCxcmh4c03DfKg/HO+fTTT0/zL/JhTo3A6Ie8zJtvvjnVs5Ec7jkoH11wjLin9yd3bIDraJMoa6zk+ZDHQdk4MDhsMrnokIiIiIhMAvRCNDLoMYQ3b96cDGXe+se8ilYwJAq5OCU4Mdwz5AgDGzk4G8gqOzXEMUyJM2U2ysNwJu6vuOKKFI+zQg/CWCejX3jhhakHIuSEE8Y1ZVE+YVE+7cQ98fRm0HMR0NsxMjKSdGEYWhBOTQ51QAZHIygPaD/y8xxkcnEOiYiIiAw0/T6HBBhWhbNw8MEHF4899lia04ATsmbNmhSPIc5cCuY8MEeCt/QY3jFkijkmXO+6664pH8Y4MpDHXAgMc+Z2nH/++SmeeSTMP2EexfHHH59k47gccsghSR5pyBdxhFXlAWSj06mnnlq84x3vSPGAjIDeBXRmvgY9I+iLcc/8DupG+FVXXTUqB72pC21CHM4K6UkT5SMfp4SwnXfeudiwYUPqESKceTbMA3nXu96VyqcMdMfxoOyAOpAOnaLHhrIpizZEHs4QbYGDxtwRyq6aJzOIDMockmm1B6cbKCIiIgPL+vXrk1MiUxuGgp133nlb9aZMdbbZZptizpw59bv+xSFbIiIiIjLwxKR0GTzsIREREZGBxh4SkWrsIREREREZUpiDwNGIRvHN8pRpVcZE6Kbs8dJv+sjkoUMiIiIiMkYuuOCC4uyzz67fvZzLLrtsNJ7ldWOVp7POOiutONUIJodzAKtZsTFgp2Fp4EMPPbSp/p2CujO3ox1atU0/wfNkQr50BlfZEhERkYGmF6tssTITy8WychOrZrGaESs/zZ49O63QtN9++6V4wsPIZlUs8rEKVKz4xEpPsTIVPQSxyhWrYZGOFaEiLeWQntWpgPTk5bj//vtHw3NIg155GaxaxUpVrMhVXk0K+ayMxYpbQJnky/UsQxoM9MgDUS7hLBHM/I5cFu2EvLzNqC8Hbcau6ZzbrVdQbiMgLXIWLFiwVX3LdSIvZZKGPMRxhC6UF3VkxTI2bGQltKo26RfQ21W2RERERLpML+aQsD8HxjY7hrMhIZOpMWKBTQDp3SAeB4TeFIxW9tOgd4Ildllulp4D9skgHwY74TgvLHXLalEYyPSWsDkh5bH8Lo4EcqOM6E0hDAeIMgLCGpUB3HME1IN48rEnR9SNMAhdYt8OoG6hA3Uknp4DNkCkTTCIqc+KFSu2kg+hF1AfZBGPfDZDzOPJH1TViyPaCBmUiy44DvQERbuxyz358vx5XdkQkmcTvUfEVenCho0sw0x83ub9hnNIRERERKYIGLrLly9Pxjdv3gMMVoxhDN3ckMfAZZPA6667LqXBkI5NATkTFmBIs0cGRjtGNgY3jk3EEYbRXN6sMDY1JB9Gc2yESBjyc2cEvdGHerBL+k033VSP2bIbfDgiGPg57D1CHdiYEccEfSiX+lIuPQg5yMKgJx1OF23GNeXnEBZtyjVHDrpyUB8cIOKjjTjQFZnoQjnoj9PBs8GR45nk7RLORhVlXXBEqC/PoZ+dkUFCh0RERERkgmCc0kPQ7vAdDGDewjNHJHoYGkFPCVAG4MyEAR9hlFtl1FflqaKZPiEjzjkY/CeccEJyqAJkLV68OF2X85Tvm7UXaaviqQc9HDhh4fzFcLCQHw5D3gY4YRzoF2E4LtCsbSDXpVVaGTs6JCIiIiJdpvwGnh4ODNzoecghbZ6et/k4FNEDETu2twK54VzQixBGeBX0fMQwp7I+jcAZQD49DfQ+BJQTPSmtnK3xQNvRM4KuUSfaaPPmzaNtFEOqCI/J5wwJw4FiKFmko7cEGXGQJ4bKtaL8nGT86JCIiIiIjBGciXhjHkYxxHUej/FMDwJDqiKcoUu8aWfeQv4Wn3AMYtJHWg6GBtGDgaEdQ7oiDjjnegBDsgjba6+9UtkMcYI8X8BcFwx69MEoD1m5zHI+4hiStf/++6chXpEWXXFICIcqWVXXIZ+jUVqgjXAYaAuIPAzNijY69thjk+MRutAG1Iu8p5xySrFkyZKUbmRkZHTYFe1FWnpecGSa6UL8woULU0+NTBwntYuIiMhA48aIItU4qV1ERERERKQFOiQiIiIiItIzdEhERERERKRn6JCIiIiIDBhMiGeiNhPiWekpVrVqBOmY1D1eymUwmRuZY4ElhWNTxiraqUenocxol9tuuy1NdpfJR4dEREREZALEPiE5VWEYvxxlxpI/YPUnNupj1ScMaVaGyimXw3K3LHGbMxYdy2XEsrit9MxhFax8eWDI0z7wwAOV9aiS16iMnEZp8nDqxXLAwCaPrLqV00hGVb1l/LjKloiIiAw0vVplix4Klr3FOMdBYD8OoCcgeg8wwFmiF2cAY5eeDZbYZalZrvNlY9lXA1i6ljhkkJ/laElHGAYy9yz9yxK95KE8wtk/hPvovSA9+QmPclj2lvyUETriKFAPwtizg7qgc+48sIRvXsZY6h4gHwcKGTgeXJOfurAkcbkMnKjYcBGdkRf1IF/U9b777kv7tNAepGG5X8LRC9ANx4Md2UlHjwjyOGLpYJ4JO9RzPPzww6kd0DdkUBZOCHojn2WUQ89+xlW2RERERIYc9rtYsWJFMv4xejkwtAnD6WCIEnEXXXRRceWVV44az2wqiMHLnhikxXAnLUYvBjNpMaTZADE2ICQMAzjfFJGyYldy4igLAx+ZlIlBz54ZhHGQNjYDDB2jh4C9RCiDnpfyxot5GQF1pz553THg87o3AqeFNKTF+OcepyTKYOgW+tx5550pDfUIR4c0OA04BBxslEgbEU8dTz/99ORkkY/46BnC2bnuuuuS/NjnhXrRPrFHS4DuH/7wh0dlhGNEGSGbZxI6ycTQIREREREZJ7wtx7CNN+kYqRy8oY9dwcNo5RowxDFyCb/hhhtSWvJgaGMc0/PAm3sMayCMN/eEkbbZcCGMbgx80tIjUAVpch0pF+hdwEk66qij2hqSFPVBP0AmjkFe90ZQZhxV0DY4OvS40A6Ugd6Q56GtqC8ODE4dzh55cULQg+t4NsRxRH7kN4J8PCOgHtQraKa3jA8dEhEREZEOEcYqb+FxPDCYuccQxmAHDOxwQHijT1qcAa5jyBI9D+TFsMc4xiAnbNmyZaNv66vAMEcGvSsMSaqCcpEXOmLIY5zPnTs3vfknDGcmHIB2wXAv13280EMzbdq01GPDEe1YhiFo9CiNjIykOSBAOnox0IO6hcPUiKp68rzo8QHkV5UtnUOHRERERKRD4ARg3DMfgjf0jOHnDX3MfyCceJwOhgsxLIm5DzEPBEMYZ4BeCuIwuPMwzoTlMP8BiMf4Rj7X9BwEODvIw8FBR974h47r1q1LOuIkhS7oS7kB+YH4RoSuudyxEI4DZdA+1OHQQw9NB0O0cn0C9I6emHCAcIbo6UEO7dXMmYj2Qt8cnKB4NjgktId0Dye1i4iIyEDTq0ntzYi37mUjOpyOHHpAykZzVf5GMoNcdlU5ZSZaRiNayWhFXsZEZFW1ayMa1WssMvqRQZnUrkMiIiIiA00/OiQi/YCrbImIiIiIiLRAh0RERERERHqGDomIiIhIl2AOAhOmmaAd8yG6DRPWKa8R6BG6sCpXs7SdgH1CONqB5YrzyfgThfo12w+lEUzsb1dnmTg6JCIiIiJd4oEHHkhOCRvvjXeS91hhEnazVaHYowODG1hlqtsrSLF6Vyx53Ap0abVM71ig7cfj4LBiWKxeJt1Hh0RERESkA2Dos+QtS8WyZCzG8DnnnJPOLEObQ1rSkT7e4LNjOkfIYLnZnOht2WuvvZI8ejmQExsokpdlfekhid3XoxwOykEG+5jgICCDtKQBZJOf8uk1IS2ETuQnTVmvXGfqDfQuRFjI4cw96akDeiCPdLG3CufQCaepHF+GHhDSAHmit4fy8zYnDWVSP8jbknPoGJAfPfJ0eZtIZ9EhEREREZkgbKLH5nxsSBj7YLBHBnuNsKcGm/Tl4EwQRnqMbQxdwjD277zzzpQnjOcAmWz+x54cgAF+yimnJMMZA/qOO+4Y3aMkDGd0YpPA5cuXpx4adGIfEuSjJ0Ta0AGdSItM6kVewthkEEeGfTsC8rCBITqzaWPozP4fH/7wh1Mdy+kPOuigFI6Dgw7oEw4H8aSPtmA/EMpFXhX0pqAT+ah/OBE4RtHDgSzKoZcKOdzTlvQk0ZbsY5I7L0Aa9KANuCYdeiJbOo8OiYiIiMgEwXjGOMbIxdjnjHHcCAx+ejZi6FRAXuI454Y8YHhfdtllqZeBYUjRU0EvDAcGc3nPDByUs846qzjppJOSM9Jq2BgbICIj5FBG7MAe9ctBJtCLkDsVHLG7OnXJyXddr4oPiENfdCq3RUD55KenBF2pJ21D24dcZCArhoIhC/3CeSNdI0eDNKSPNg+9pbPokIiIiIhMEIzeMGrDIA9jvQxxF110UXpjTw9Au2AMX3LJJcWKFStSj0XM/aA3ACMfh4C3+Tk4E/ReUB49EuHEtAtlkge5Ua+cG264ITlK9HjQQwLh9ETacp5Og0NBzwdnepBoB9q+mfNAHE4MUL9maeldoX7Uq9xrJZ1Bh0RERERkgsSbdOYZsFIUvRU4A1XEG3scBI52wQFhaBG9ETHvgSFFGNQ4NsiM+SAB8ehDOcRzMJQJJ6KdsqnXkiVLikMPPTTN/Sgb7osXL056oNfIyEgKwxkIXWmPNWvWpPBOQH04cqgPOtCTQpvzHKJ3pBHoh+MSPTsMfauCnhZ6smgrekhweKTzuFO7iIiIDDT9tFM7hn4Y/hBzEcqGPOEYuwwjivjo3cBhaSdfpINyHgz0yBtDx2LIEhAPeVrOOBO5XKAnAWMfmGCO85Mb/OSjXOSXy911113TNSA3j6+65hw9S3n9I54hbscee2zqEcqJfFFGXo8qOVBuy5xyuzZK1+8Myk7tOiQiIiIy0PSTQzJsYMzTixCGPUY5w5d6Bb00TNKX9tAhEREREZkEdEi6T95jIIPDoDgkziERERERkabgiOiMSLfQIREREREZMJirwr4b7cJwKyZnR09HQDgrR5XDGzHWcicKE8kpczxQr/IEeOlPdEhEREREegzGM3M12oWJ5mxaOBZYgYpeDox09tUAHBGWzMUxaQRpw7AfT7ljhfLCCcEhieV5xwoT6mMiPzutM6G9HfLyZXLQIRERERGZIDgUsTEgBnTs/M0yvCx9i7MRe4BgZHNPOHlwBthLhPhYijfPF4Y0Kz1xn4flEI6DEelIw8E1YGQTF7uV58v+ogfllZcCxhFBxsjISNIbQibpw3DPw6r26sjrEz0stFHIJJ6yOCMLPaK9QjZHhEUd8/Jod/IRjizShCygvMgXPUL5c4Ny+VzTsxRt025PkowNHRIRERGRCULPQxjXOBeAgYwhz8Z67OeBIQwYwexnwcaIGMgsURt7aLB/CT0QkY/wyIdhzBv/c889t/INPsYzeSmXeM7Rm4EhTRhlsZs5+lJWDnIx5HPZ6MkyuUcffXTa7wMoh3082J8kHC90JJ4NGGmHaAsgPcY99WG5XlbKAsqJnpkw/lnSl/KQH8vzkg7duA/ng7ZAN8rDoSAN+bmmXuhC2yIfWcA5ekyoJ3E4Z1EvKJdP/ThTDu2JwyKdR4dEREREZILgcGAAh+HPfRj2GOBhAGM0s4cHhi1v3GM/j5gwjvGb58OwJ08Y3MjFqC7vwwGEYdjTA4EDQZ7QJSf2+aCsACMeXYh77LHH6qEv6cU5rknHEXuToBdH9FBwTVsElIOzRZ2XL1+e4htRVR51oc6USRtSDjJwrAhHD9oXQq+8biEnwmgn2hU5oVtQLj/aj3KiTaXz6JCIiIiITBAMeYzWs846K91jGGPQEk7PAAc9IhjAGP9cYzifc845o8OQAtJw5PnCaI4ehaqhQ/QYYGgjL3pRONClm4QRT68C+rJxYu4ERY8P8dS3imZOSpnYbDHagLzhbLQDutFG9GSVe4nKULdo8/Jzks6hQyIiIiLSATC46Z2IngMMX4xZeg0Y+sPwIODNPtfxhh6jF2cGgzeGc2Fk5/liqBX37FZe9aYep4XycEBIj+w452DQIz+GW7WC/OjQyCCnDOqOPPRHv9xhWrBgQbqnF4OhTwE9DshlfkYY/UB7UPdG5aEPeY888shUFnUp9wKVIQ/6oQf60lb5s8ohbZQf9eLA2eNeOo8bI4qIiMhA0y8bI2JUY8TiXESvAcZyzBPJwzFuMY4xiCMsnAwcijxf3sMRacLJiHNAPGEcMWyKckO3kBVyMMzL4bmeQN4ID5BPOHpGOGm4z+sUoEuUQ5q8vEgbzlPUnbkdDB/LwymzUXnleGTgfEVcyOQeh4P7ql3ny2mb1avfcad2ERERkUnAndplLEQP0yWXXFI5F2eY0CERERERmQR0SGQsxHCyQevtGA+D4pA4h0REREREpgw4IlPBGRkkdEhERERE+hTmMjChmiFG3YRyqspgqV7mfkwmzNdgjkcjGuk6Hphon0/Al96gQyIiIiLSp+CMxKTuTsNcCibXA+fYyyMHY70XvQlMTm9Ela6xr8tYYRniZmXJ5DD9zDPP/FT9WkRERGTgYP7Iiy++WL/rL1jad2RkpPjBD35QXHrppWkJ3N133z3FsUQucY888kixePHiYsOGDcUnP/nJtLLUV77yleKJJ55IZ2A1rGnTpqVlcq+66qoUxmpSuXzk0HtA2PXXX596EXbcccfiU5/6VLFq1ari4IMPTvkAo559OMgTK1jhfJAfeW95y1uSI8TSuMhAb8oNffPdzYF81A+ZO+20U5JJ/ZCLzpRN3WKZXRwt9KcMnIkvfOELSUfKpd5ckzZ6S5BL+5CHesUKZUDZses9zhNpcpm0N+VQZ3SkTaN+6MZeJMijnNBpWOAzM2PGjPpd/2IPiYiIiEiXwKC+5pprinXr1iUDOvbowGCOHdVJwz3hGN5r1qxJBn8Yx+TDYTnxxBOTTPbCwHimlyCXH8Y6TgN5iCddXOe9CqQN4x3ZEEsWb968uTj99NNTGEZ86IfsZcuWJcMf3QPiSY+uLOfLNXXJdYm6BVyTD51IQzvgiLE7PT0WkRanBrk4DdSlavgYzg8OG2fajXKjbZFFPs7oFTvS02YBetC2LBHcjZ4oaY0OiYiIiEgXwcjHkMcYxuBl53IMZhyCMPhzY51d1lmOlnzAGYOadDgjGNQY2xjegEzkR3ricAK458x9xAXkwdDHkI8hWYSRHj3Lw5gw1nEGMORJky+X+8ADDySHA73Ju3z58nrMlk0gKb8R1Js8yGQZ3vLGg8ShH44LZZT1AuqB7nHQPuhH+6Bz5CEOB4d75AY4ibQPbSi9QYdEREREpIvkRjTXDH+K3gl2GMc4ZshRM8JpCFkY5xjirYh87dAsLU7FyMhI6oFgmBOGfUB9chgy1gj0zqFMHC2gbnEdRG8Ljkq7dUE3HD6cnNiAkba6+eabkxx6eNgdPiAdjuFkT96Xl9AhEREREekiGNnMmYgJ6vRKHHHEEckIxnjHwM97SKogXwyHYghS9CxMBAx85LRjiGPkUzbDuYAekyB6WaKO1KcM8Rz0RpAmnAscMnRAPsOmotcnwEkhLUPGmkGaGKoFODEMAQvnCDn7779/uqcto3zASaF3J4bToV8+pEu6j5PaRUREZKDp50ntvI3H4Mfg3bhxY/HRj340DR2id4QDZ+Vd73rXqHOxxx57bDW8irQxKRvjfdasWemo2W+j4cwBiYny3JOfieU4DVwTll8HTOyGKIOyuSYN14RxTzp6EbhmQvspp5yS7gP04Z4J1OQ9//zzk8Gfl0mad77znSk9Z3pakI9sJrwj99hjjy2OO+640fLJS1ra8JBDDknpQqfQNYhJ6kzAj3bCuaBdQxbhyEIvdCRN6IizF3XnIIw2HHQGZVK7O7WLiIjIQNPPO7Uz94EegxUrVtRDRCaPQdmpXYdEREREBpp+dkjoAWG4EG/cRSYbHRIRERGRSaCfHRKRXjIoDomT2kVEREREpGfokIiIiIiISM/QIRERERERkZ6hQyIiIiIiIj1Dh0RERERERHqGDomIiIiIiPQMHRIREREREekZOiQiIiIiItIzdEhERERERKRn6JCIiIiIiEjP0CEREREREZGeoUMiIiIiIiI9Q4dERERERER6xrTVq1dvrl+LiIiIDBybN2vKiDRi2rRp9av+RYdERERERER6hkO2RERERESkZ+iQiIiIiIhIz9AhERERERGRnqFDIiIiIiIiPUOHREREREREeoYOiYiIiIiI9AwdEhERERER6Rk6JCIiIiIi0jN0SEREREREpGfokIiIiIiISM/QIRERERERkZ6hQyIiIiIiIj1Dh0RERERERHqGDomIiIiIiPQMHRIREREREekZOiQiIiIiItIzdEhERERERKRn6JCIiIiIiEjP0CEREREREZGeoUMiIiIiIiI9Q4dERERERER6hg6JiIiIiIj0DB0SERERERHpGTokIiIiIiLSM6atXr16c/1aREREpK/471f9VbF23br6nYh0mj12f11x7FH/qX7XG3RIREREpG854X2nFj/7t8frdyLSad78pt8oPnvJn9TveoNDtkREREREpGfokIiIiIiISM/QIRERERERkZ6hQyIiIiIiIj1Dh0RERERERHqGDomIiIiIiPQMHRIREREREekZOiQiIiIiItIzdEhERERERKRn6JCIiIiIiEjP0CEREREREZGeoUMiIiIiIiI9Q4dEREREZMiZN29e/eolqsL6gX7VS7qHDomIiIjIkLJo4WuKq//ivxcXnv/x4vQPfaAeusXoP+rd76jfNYb8p3/o/fW7as7+2EdSGUsPPaQeUhR77/X6FHb55/60OPH33lsr653paMWJv3dcTdc/TnmRkYMeS/b/zVrclfWQrUFXyjv7Y/81HYcd+tZ6jPQ7088888xP1a9FRERE+oobb/77Yt2vflW/k7Fy4fmfKP7bBZcUf/vlm9L9ATWDHgfiyZ//vDi65iBgxEfYvm9+Y3FSzSFYveanxbKa8X/Uu99VrPre/y0+8PsnF//+tw8qdtxxh3T9zX/6VnHpJX9SfPXrtyWZ+775N4q1a9cVK+/7Tk3uL1LYpZdcUJz7ifNTubNmzSrm13s9ltacBMpA1o477lh85L+cXrz3/zmmuOPOu4qNGzcW73j7EcVDD/9zLd+NNT1+VivvpNH0yEE39AWclwP2/62kD5xTq8NXajpRJ+CM/siVxuyyy87F2444rH7XG+whERERERlicBZO+r33Fp//3J+m++W3/H2x4s5vpGu4t+ZIrFu7tjiv5kAUxeZa+rWpBwXjn+t77/t2ccZ//aPkTKysXdMT8kwtPFhScwow/pce+h9GnQHiKReQEeDk4HDsvdcbisNrciiDY9HCV6f4a//6+mJNzRGhN4fekDx9TsgmbzBv3vbJybr4zz6X9CBfyJX+RodEREREZEhZfsutabjWwoULi5tq1+2AM4Ixv0/NCeAah4MelIce/peajK8kZwG5kRZwDHB6nqk7CnfUHB7KZegUTkVA/JpaWo4Ha/IAh4XeEGBYF0O1kDut5hzl6XPmzZubwnLZRS0HeqMH+XFiQq70N9NWr169uX4tIiIi0lec8L5Ti5/92+P1OxkPCxe+pphfM+BxKMKBwAkgPHoaIMIw9OmdID1h5KGngXuchQvO/2Rx7HtPqOd6SX4Y/9Ej0qhcZJC2fB1QNg4OekTZuWMRzkiuIzCEK3pGgGFguVyp5s1v+o3is5f8Sf2uN+iQiIiISN+iQ9Jf5M5CP4ITRM8OQ8aY0yKt6QeHxCFbIiIiItIWGPn96owAujFcTGdksNAhERERERGRnqFDIiIiIiIiPUOHREREREREeoYOiYiIiIiI9AwdEhERERER6Rk6JCIiIiIi0jN0SEREREREpGfokIiIiIiISM/QIRERERERkZ6hQyIiIiIiIj1Dh0RERERERHqGDomIiIiIiPQMHRIREREREekZOiQiIiIiItIzdEhERERERKRn6JCIiIiIiEjPmLZ69erN9WsREREREZFJxR4SERERERHpGTokIiIiIiLSM3RIRERERESkZ+iQiIiIiIhIz9AhERERERGRnqFDIiIiIiIiPUOHREREREREeoYOiYiIiIiI9AwdEhERERER6Rk6JCIiIiIi0jN0SEREREREpGfokIiIiIiISM/QIRERERERkZ6hQyIiIiIiIj1Dh0RERERERHqGDomIiIiIiPQMHRIREREREekZOiQiIiIiItIzdEhERERERKRn6JCIiIiIiEjP0CEREREREZGeoUMiIiIiIiI9Q4dERERERER6hg6JiIiIiIj0DB0SERERERHpGTokIiIiIiLSM3RIRERERESkZ+iQiIiIiIhIjyiK/z9BK+ZQ9RvtFQAAAABJRU5ErkJggg==;" vertex="1" parent="1">
          <mxGeometry x="160" y="120" width="804" height="557" as="geometry" />
        </mxCell>
        <mxCell id="LfvLwOXkvukCmx8vtBnK-6" style="edgeStyle=orthogonalEdgeStyle;rounded=0;orthogonalLoop=1;jettySize=auto;html=1;strokeWidth=4;" edge="1" parent="1" source="LfvLwOXkvukCmx8vtBnK-3">
          <mxGeometry relative="1" as="geometry">
            <mxPoint x="469.9203643798828" y="228.3664321899414" as="targetPoint" />
            <Array as="points">
              <mxPoint x="546" y="228" />
            </Array>
          </mxGeometry>
        </mxCell>
        <mxCell id="LfvLwOXkvukCmx8vtBnK-7" style="edgeStyle=orthogonalEdgeStyle;rounded=0;orthogonalLoop=1;jettySize=auto;html=1;exitX=0.75;exitY=1;exitDx=0;exitDy=0;strokeWidth=4;" edge="1" parent="1" source="LfvLwOXkvukCmx8vtBnK-3">
          <mxGeometry relative="1" as="geometry">
            <mxPoint x="747" y="247" as="targetPoint" />
            <Array as="points">
              <mxPoint x="660" y="220" />
              <mxPoint x="747" y="220" />
            </Array>
          </mxGeometry>
        </mxCell>
        <mxCell id="LfvLwOXkvukCmx8vtBnK-3" value="&lt;span style=&quot;font-size: 16px;&quot;&gt;Login form with a darker background so it stands out.&lt;/span&gt;" style="text;html=1;strokeColor=none;fillColor=none;align=center;verticalAlign=middle;whiteSpace=wrap;rounded=0;" vertex="1" parent="1">
          <mxGeometry x="510" y="70" width="200" height="30" as="geometry" />
        </mxCell>
        <mxCell id="LfvLwOXkvukCmx8vtBnK-10" style="edgeStyle=orthogonalEdgeStyle;rounded=0;orthogonalLoop=1;jettySize=auto;html=1;strokeWidth=4;" edge="1" parent="1" source="LfvLwOXkvukCmx8vtBnK-8">
          <mxGeometry relative="1" as="geometry">
            <mxPoint x="742.6477203369141" y="263.8209915161133" as="targetPoint" />
          </mxGeometry>
        </mxCell>
        <mxCell id="LfvLwOXkvukCmx8vtBnK-11" style="edgeStyle=orthogonalEdgeStyle;rounded=0;orthogonalLoop=1;jettySize=auto;html=1;strokeWidth=4;" edge="1" parent="1" source="LfvLwOXkvukCmx8vtBnK-8">
          <mxGeometry relative="1" as="geometry">
            <mxPoint x="748.1023101806641" y="313.8210220336914" as="targetPoint" />
            <Array as="points">
              <mxPoint x="701" y="265" />
              <mxPoint x="701" y="314" />
            </Array>
          </mxGeometry>
        </mxCell>
        <mxCell id="LfvLwOXkvukCmx8vtBnK-12" style="edgeStyle=orthogonalEdgeStyle;rounded=0;orthogonalLoop=1;jettySize=auto;html=1;exitX=0;exitY=0.25;exitDx=0;exitDy=0;strokeWidth=4;" edge="1" parent="1" source="LfvLwOXkvukCmx8vtBnK-8">
          <mxGeometry relative="1" as="geometry">
            <mxPoint x="470.8295440673828" y="257.4573745727539" as="targetPoint" />
          </mxGeometry>
        </mxCell>
        <mxCell id="LfvLwOXkvukCmx8vtBnK-14" style="edgeStyle=orthogonalEdgeStyle;rounded=0;orthogonalLoop=1;jettySize=auto;html=1;exitX=0;exitY=0.25;exitDx=0;exitDy=0;strokeWidth=4;" edge="1" parent="1" source="LfvLwOXkvukCmx8vtBnK-8">
          <mxGeometry relative="1" as="geometry">
            <mxPoint x="483.5568389892578" y="291.0937271118164" as="targetPoint" />
            <Array as="points">
              <mxPoint x="505" y="258" />
              <mxPoint x="505" y="291" />
            </Array>
          </mxGeometry>
        </mxCell>
        <mxCell id="LfvLwOXkvukCmx8vtBnK-8" value="&lt;span style=&quot;font-size: 16px;&quot;&gt;input fields&amp;nbsp;for user name and password&lt;/span&gt;" style="text;html=1;strokeColor=none;fillColor=none;align=center;verticalAlign=middle;whiteSpace=wrap;rounded=0;" vertex="1" parent="1">
          <mxGeometry x="535" y="250" width="150" height="30" as="geometry" />
        </mxCell>
        <mxCell id="LfvLwOXkvukCmx8vtBnK-16" style="edgeStyle=orthogonalEdgeStyle;rounded=0;orthogonalLoop=1;jettySize=auto;html=1;exitX=1;exitY=0.5;exitDx=0;exitDy=0;strokeWidth=4;" edge="1" parent="1" source="LfvLwOXkvukCmx8vtBnK-15">
          <mxGeometry relative="1" as="geometry">
            <mxPoint x="729.8419741675966" y="564.4875270298548" as="targetPoint" />
          </mxGeometry>
        </mxCell>
        <mxCell id="LfvLwOXkvukCmx8vtBnK-17" style="edgeStyle=orthogonalEdgeStyle;shape=connector;rounded=0;orthogonalLoop=1;jettySize=auto;html=1;labelBackgroundColor=default;strokeColor=default;strokeWidth=4;align=center;verticalAlign=middle;fontFamily=Helvetica;fontSize=11;fontColor=default;endArrow=classic;" edge="1" parent="1" source="LfvLwOXkvukCmx8vtBnK-15">
          <mxGeometry relative="1" as="geometry">
            <mxPoint x="359.27917189825143" y="433.7515883672804" as="targetPoint" />
          </mxGeometry>
        </mxCell>
        <mxCell id="LfvLwOXkvukCmx8vtBnK-15" value="&lt;span style=&quot;font-size: 16px;&quot;&gt;Message about making an admin account as that will have to be done by an admin&lt;/span&gt;" style="text;html=1;strokeColor=none;fillColor=none;align=center;verticalAlign=middle;whiteSpace=wrap;rounded=0;" vertex="1" parent="1">
          <mxGeometry x="390" y="550" width="200" height="30" as="geometry" />
        </mxCell>
        <mxCell id="LfvLwOXkvukCmx8vtBnK-21" style="edgeStyle=orthogonalEdgeStyle;shape=connector;rounded=0;orthogonalLoop=1;jettySize=auto;html=1;labelBackgroundColor=default;strokeColor=default;strokeWidth=4;align=center;verticalAlign=middle;fontFamily=Helvetica;fontSize=11;fontColor=default;endArrow=classic;" edge="1" parent="1" source="LfvLwOXkvukCmx8vtBnK-18">
          <mxGeometry relative="1" as="geometry">
            <mxPoint x="212.30953834170396" y="323.79486519949774" as="targetPoint" />
          </mxGeometry>
        </mxCell>
        <mxCell id="LfvLwOXkvukCmx8vtBnK-18" value="&lt;span style=&quot;font-size: 16px;&quot;&gt;button to login&lt;/span&gt;" style="text;html=1;strokeColor=none;fillColor=none;align=center;verticalAlign=middle;whiteSpace=wrap;rounded=0;" vertex="1" parent="1">
          <mxGeometry x="-60" y="350" width="200" height="30" as="geometry" />
        </mxCell>
        <mxCell id="LfvLwOXkvukCmx8vtBnK-20" style="edgeStyle=orthogonalEdgeStyle;shape=connector;rounded=0;orthogonalLoop=1;jettySize=auto;html=1;labelBackgroundColor=default;strokeColor=default;strokeWidth=4;align=center;verticalAlign=middle;fontFamily=Helvetica;fontSize=11;fontColor=default;endArrow=classic;" edge="1" parent="1" source="LfvLwOXkvukCmx8vtBnK-19">
          <mxGeometry relative="1" as="geometry">
            <mxPoint x="815.7724987211682" y="344.57408069428936" as="targetPoint" />
          </mxGeometry>
        </mxCell>
        <mxCell id="LfvLwOXkvukCmx8vtBnK-19" value="&lt;span style=&quot;font-size: 16px;&quot;&gt;button to login&lt;/span&gt;" style="text;html=1;strokeColor=none;fillColor=none;align=center;verticalAlign=middle;whiteSpace=wrap;rounded=0;" vertex="1" parent="1">
          <mxGeometry x="1030" y="330" width="200" height="30" as="geometry" />
        </mxCell>
        <mxCell id="LfvLwOXkvukCmx8vtBnK-24" style="edgeStyle=orthogonalEdgeStyle;shape=connector;rounded=0;orthogonalLoop=1;jettySize=auto;html=1;labelBackgroundColor=default;strokeColor=default;strokeWidth=4;align=center;verticalAlign=middle;fontFamily=Helvetica;fontSize=11;fontColor=default;endArrow=classic;" edge="1" parent="1" source="LfvLwOXkvukCmx8vtBnK-22">
          <mxGeometry relative="1" as="geometry">
            <mxPoint x="188.93289911179318" y="309.0762953985304" as="targetPoint" />
            <Array as="points">
              <mxPoint x="30" y="310" />
              <mxPoint x="160" y="310" />
            </Array>
          </mxGeometry>
        </mxCell>
        <mxCell id="LfvLwOXkvukCmx8vtBnK-22" value="&lt;span style=&quot;font-size: 16px;&quot;&gt;link to go back to index page if the user isn&#39;t&amp;nbsp;an admin.&lt;/span&gt;" style="text;html=1;strokeColor=none;fillColor=none;align=center;verticalAlign=middle;whiteSpace=wrap;rounded=0;" vertex="1" parent="1">
          <mxGeometry x="-70" y="270" width="200" height="50" as="geometry" />
        </mxCell>
        <mxCell id="LfvLwOXkvukCmx8vtBnK-26" style="edgeStyle=orthogonalEdgeStyle;shape=connector;rounded=0;orthogonalLoop=1;jettySize=auto;html=1;labelBackgroundColor=default;strokeColor=default;strokeWidth=4;align=center;verticalAlign=middle;fontFamily=Helvetica;fontSize=11;fontColor=default;endArrow=classic;" edge="1" parent="1" source="LfvLwOXkvukCmx8vtBnK-25">
          <mxGeometry relative="1" as="geometry">
            <mxPoint x="896.2649773491753" y="484.8314293755425" as="targetPoint" />
          </mxGeometry>
        </mxCell>
        <mxCell id="LfvLwOXkvukCmx8vtBnK-27" style="edgeStyle=orthogonalEdgeStyle;shape=connector;rounded=0;orthogonalLoop=1;jettySize=auto;html=1;labelBackgroundColor=default;strokeColor=default;strokeWidth=4;align=center;verticalAlign=middle;fontFamily=Helvetica;fontSize=11;fontColor=default;endArrow=classic;" edge="1" parent="1" source="LfvLwOXkvukCmx8vtBnK-25">
          <mxGeometry relative="1" as="geometry">
            <mxPoint x="909.3962843153213" y="261.599109225803" as="targetPoint" />
            <Array as="points">
              <mxPoint x="1285" y="485" />
              <mxPoint x="1285" y="262" />
            </Array>
          </mxGeometry>
        </mxCell>
        <mxCell id="LfvLwOXkvukCmx8vtBnK-25" value="&lt;span style=&quot;font-size: 16px;&quot;&gt;Stack bellow each other&amp;nbsp;on mobile so the user can read both sections&lt;/span&gt;" style="text;html=1;strokeColor=none;fillColor=none;align=center;verticalAlign=middle;whiteSpace=wrap;rounded=0;" vertex="1" parent="1">
          <mxGeometry x="1060" y="470" width="200" height="30" as="geometry" />
        </mxCell>
        <mxCell id="LfvLwOXkvukCmx8vtBnK-28" value="&lt;font style=&quot;font-size: 36px;&quot;&gt;&lt;b&gt;Admin login page&amp;nbsp;&lt;/b&gt;&lt;/font&gt;" style="text;html=1;strokeColor=none;fillColor=none;align=center;verticalAlign=middle;whiteSpace=wrap;rounded=0;fontSize=11;fontFamily=Helvetica;fontColor=default;" vertex="1" parent="1">
          <mxGeometry x="450" y="-20" width="330" height="30" as="geometry" />
        </mxCell>
      </root>
    </mxGraphModel>
  </diagram>
</mxfile>
